<mxfile host="app.diagrams.net" modified="2024-04-12T06:33:26.871Z" agent="Mozilla/5.0 (Windows NT 10.0; Win64; x64) AppleWebKit/537.36 (KHTML, like Gecko) Chrome/123.0.0.0 Safari/537.36" etag="WsD9mitMTAHObTjTJNhm" version="24.2.3" type="device" pages="4">
  <diagram name="개념정의" id="QC3ONm8Dk3KvNTMrpAN6">
    <mxGraphModel dx="1265" dy="1228" grid="0" gridSize="10" guides="1" tooltips="1" connect="1" arrows="1" fold="1" page="0" pageScale="1" pageWidth="827" pageHeight="1169" math="0" shadow="0">
      <root>
        <mxCell id="0" />
        <mxCell id="1" parent="0" />
        <mxCell id="F9aQJ-cwggNyDFHJlZmO-1" value="Entity" style="whiteSpace=wrap;html=1;align=center;" parent="1" vertex="1">
          <mxGeometry x="-71" y="-58" width="100" height="40" as="geometry" />
        </mxCell>
        <mxCell id="F9aQJ-cwggNyDFHJlZmO-2" value="개체 : 사각형으로 표시" style="text;html=1;align=center;verticalAlign=middle;resizable=0;points=[];autosize=1;strokeColor=none;fillColor=none;fontSize=16;fontStyle=1" parent="1" vertex="1">
          <mxGeometry x="-71" y="-103" width="180" height="31" as="geometry" />
        </mxCell>
        <mxCell id="F9aQJ-cwggNyDFHJlZmO-3" value="Entity" style="shape=ext;margin=3;double=1;whiteSpace=wrap;html=1;align=center;" parent="1" vertex="1">
          <mxGeometry x="-71" y="32" width="100" height="40" as="geometry" />
        </mxCell>
        <mxCell id="F9aQJ-cwggNyDFHJlZmO-4" value="강한 개체" style="text;html=1;align=center;verticalAlign=middle;resizable=0;points=[];autosize=1;strokeColor=none;fillColor=none;fontSize=16;" parent="1" vertex="1">
          <mxGeometry x="52" y="-53.5" width="86" height="31" as="geometry" />
        </mxCell>
        <mxCell id="F9aQJ-cwggNyDFHJlZmO-5" value="약한 개체 : 다른 개체의 도움이 필요한 개체" style="text;html=1;align=center;verticalAlign=middle;resizable=0;points=[];autosize=1;strokeColor=none;fillColor=none;fontSize=16;" parent="1" vertex="1">
          <mxGeometry x="56" y="36.5" width="326" height="31" as="geometry" />
        </mxCell>
        <mxCell id="F9aQJ-cwggNyDFHJlZmO-6" value="Attribute" style="ellipse;whiteSpace=wrap;html=1;align=center;" parent="1" vertex="1">
          <mxGeometry x="-73" y="142" width="100" height="40" as="geometry" />
        </mxCell>
        <mxCell id="F9aQJ-cwggNyDFHJlZmO-7" value="속성 : 개체가 가진 성질, 타원형 표시" style="text;html=1;align=left;verticalAlign=middle;resizable=0;points=[];autosize=1;strokeColor=none;fillColor=none;fontSize=16;fontStyle=1" parent="1" vertex="1">
          <mxGeometry x="-63" y="93" width="278" height="31" as="geometry" />
        </mxCell>
        <mxCell id="F9aQJ-cwggNyDFHJlZmO-8" value="Attribute" style="ellipse;whiteSpace=wrap;html=1;align=center;fontStyle=4;" parent="1" vertex="1">
          <mxGeometry x="-71" y="220" width="100" height="40" as="geometry" />
        </mxCell>
        <mxCell id="F9aQJ-cwggNyDFHJlZmO-9" value="일반적인 속성" style="text;html=1;align=left;verticalAlign=middle;resizable=0;points=[];autosize=1;strokeColor=none;fillColor=none;fontSize=16;" parent="1" vertex="1">
          <mxGeometry x="66" y="146.5" width="118" height="31" as="geometry" />
        </mxCell>
        <mxCell id="F9aQJ-cwggNyDFHJlZmO-10" value="키 속성, 밑줄이 그여짐, 개체를 유일하게 식별" style="text;html=1;align=left;verticalAlign=middle;resizable=0;points=[];autosize=1;strokeColor=none;fillColor=none;fontSize=16;" parent="1" vertex="1">
          <mxGeometry x="64" y="227" width="342" height="31" as="geometry" />
        </mxCell>
        <mxCell id="F9aQJ-cwggNyDFHJlZmO-11" value="&lt;span style=&quot;border-bottom: 1px dotted&quot;&gt;Attribute&lt;/span&gt;" style="ellipse;whiteSpace=wrap;html=1;align=center;" parent="1" vertex="1">
          <mxGeometry x="-71" y="298" width="100" height="40" as="geometry" />
        </mxCell>
        <mxCell id="F9aQJ-cwggNyDFHJlZmO-12" value="약한 개체의 식별자, 점선 밑줄." style="text;html=1;align=left;verticalAlign=middle;resizable=0;points=[];autosize=1;strokeColor=none;fillColor=none;fontSize=16;" parent="1" vertex="1">
          <mxGeometry x="66" y="298" width="237" height="31" as="geometry" />
        </mxCell>
        <mxCell id="F9aQJ-cwggNyDFHJlZmO-13" value="Attribute" style="ellipse;whiteSpace=wrap;html=1;align=center;dashed=1;" parent="1" vertex="1">
          <mxGeometry x="-73" y="368" width="100" height="40" as="geometry" />
        </mxCell>
        <mxCell id="F9aQJ-cwggNyDFHJlZmO-14" value="유도속성 : 다른 속성으로 유도가 가능한 속성&lt;div&gt;&amp;nbsp; - 나이(유도속성)는 출생연도(일반속성)에서 유추할 수 있음&lt;/div&gt;" style="text;html=1;align=left;verticalAlign=middle;resizable=0;points=[];autosize=1;strokeColor=none;fillColor=none;fontSize=16;" parent="1" vertex="1">
          <mxGeometry x="69" y="363.5" width="444" height="50" as="geometry" />
        </mxCell>
        <mxCell id="F9aQJ-cwggNyDFHJlZmO-15" value="Attribute" style="ellipse;shape=doubleEllipse;margin=3;whiteSpace=wrap;html=1;align=center;" parent="1" vertex="1">
          <mxGeometry x="-71" y="441" width="100" height="40" as="geometry" />
        </mxCell>
        <mxCell id="F9aQJ-cwggNyDFHJlZmO-16" value="다중값 속성 : 이중타원, 여러개의 값을 갖는 속성&lt;div&gt;&amp;nbsp; - 취미 속성은 (수영, 독서, 애니메이션) 등 여러값을 가질 수 있음&lt;/div&gt;" style="text;html=1;align=left;verticalAlign=middle;resizable=0;points=[];autosize=1;strokeColor=none;fillColor=none;fontSize=16;" parent="1" vertex="1">
          <mxGeometry x="66" y="436.5" width="480" height="50" as="geometry" />
        </mxCell>
        <mxCell id="F9aQJ-cwggNyDFHJlZmO-17" value="Relationship" style="shape=rhombus;perimeter=rhombusPerimeter;whiteSpace=wrap;html=1;align=center;" parent="1" vertex="1">
          <mxGeometry x="-83" y="551" width="120" height="60" as="geometry" />
        </mxCell>
        <mxCell id="F9aQJ-cwggNyDFHJlZmO-18" value="관계" style="text;html=1;align=center;verticalAlign=middle;resizable=0;points=[];autosize=1;strokeColor=none;fillColor=none;fontSize=16;fontStyle=1" parent="1" vertex="1">
          <mxGeometry x="-48" y="509" width="50" height="31" as="geometry" />
        </mxCell>
        <mxCell id="F9aQJ-cwggNyDFHJlZmO-19" value="개체와 개체 사이의 연관성을 나타내는 개념" style="text;html=1;align=left;verticalAlign=middle;resizable=0;points=[];autosize=1;strokeColor=none;fillColor=none;fontSize=16;" parent="1" vertex="1">
          <mxGeometry x="66" y="556" width="328" height="31" as="geometry" />
        </mxCell>
        <mxCell id="F9aQJ-cwggNyDFHJlZmO-20" value="소속" style="shape=rhombus;perimeter=rhombusPerimeter;whiteSpace=wrap;html=1;align=center;" parent="1" vertex="1">
          <mxGeometry x="71" y="661" width="120" height="60" as="geometry" />
        </mxCell>
        <mxCell id="F9aQJ-cwggNyDFHJlZmO-21" value="" style="endArrow=none;html=1;rounded=0;fontSize=12;startSize=8;endSize=8;curved=1;" parent="1" source="F9aQJ-cwggNyDFHJlZmO-20" target="F9aQJ-cwggNyDFHJlZmO-22" edge="1">
          <mxGeometry relative="1" as="geometry">
            <mxPoint x="189" y="692" as="sourcePoint" />
            <mxPoint x="349" y="692" as="targetPoint" />
            <Array as="points">
              <mxPoint x="267" y="690" />
            </Array>
          </mxGeometry>
        </mxCell>
        <mxCell id="F9aQJ-cwggNyDFHJlZmO-22" value="학과" style="whiteSpace=wrap;html=1;align=center;" parent="1" vertex="1">
          <mxGeometry x="246" y="673" width="100" height="40" as="geometry" />
        </mxCell>
        <mxCell id="F9aQJ-cwggNyDFHJlZmO-24" value="학생" style="whiteSpace=wrap;html=1;align=center;" parent="1" vertex="1">
          <mxGeometry x="-71" y="673" width="100" height="40" as="geometry" />
        </mxCell>
        <mxCell id="F9aQJ-cwggNyDFHJlZmO-26" value="" style="endArrow=none;html=1;rounded=0;fontSize=12;startSize=8;endSize=8;curved=1;exitX=1;exitY=0.5;exitDx=0;exitDy=0;" parent="1" source="F9aQJ-cwggNyDFHJlZmO-24" edge="1">
          <mxGeometry relative="1" as="geometry">
            <mxPoint x="33" y="692.5" as="sourcePoint" />
            <mxPoint x="71" y="693" as="targetPoint" />
          </mxGeometry>
        </mxCell>
        <mxCell id="F9aQJ-cwggNyDFHJlZmO-28" value="이진관계 : 두 개체가 관계를 맺는 경우" style="text;html=1;align=left;verticalAlign=middle;resizable=0;points=[];autosize=1;strokeColor=none;fillColor=none;fontSize=16;" parent="1" vertex="1">
          <mxGeometry x="-60" y="621" width="289" height="31" as="geometry" />
        </mxCell>
        <mxCell id="F9aQJ-cwggNyDFHJlZmO-36" value="수행" style="shape=rhombus;perimeter=rhombusPerimeter;whiteSpace=wrap;html=1;align=center;" parent="1" vertex="1">
          <mxGeometry x="71" y="787" width="120" height="60" as="geometry" />
        </mxCell>
        <mxCell id="F9aQJ-cwggNyDFHJlZmO-37" value="" style="endArrow=none;html=1;rounded=0;fontSize=12;startSize=8;endSize=8;curved=1;" parent="1" source="F9aQJ-cwggNyDFHJlZmO-36" target="F9aQJ-cwggNyDFHJlZmO-38" edge="1">
          <mxGeometry relative="1" as="geometry">
            <mxPoint x="189" y="818" as="sourcePoint" />
            <mxPoint x="349" y="818" as="targetPoint" />
            <Array as="points">
              <mxPoint x="267" y="816" />
            </Array>
          </mxGeometry>
        </mxCell>
        <mxCell id="F9aQJ-cwggNyDFHJlZmO-38" value="프로젝트" style="whiteSpace=wrap;html=1;align=center;" parent="1" vertex="1">
          <mxGeometry x="246" y="799" width="100" height="40" as="geometry" />
        </mxCell>
        <mxCell id="F9aQJ-cwggNyDFHJlZmO-39" value="직원" style="whiteSpace=wrap;html=1;align=center;" parent="1" vertex="1">
          <mxGeometry x="-73" y="797" width="100" height="40" as="geometry" />
        </mxCell>
        <mxCell id="F9aQJ-cwggNyDFHJlZmO-40" value="" style="endArrow=none;html=1;rounded=0;fontSize=12;startSize=8;endSize=8;curved=1;exitX=1;exitY=0.5;exitDx=0;exitDy=0;entryX=0;entryY=0.5;entryDx=0;entryDy=0;" parent="1" source="F9aQJ-cwggNyDFHJlZmO-39" target="F9aQJ-cwggNyDFHJlZmO-36" edge="1">
          <mxGeometry relative="1" as="geometry">
            <mxPoint x="33" y="818.5" as="sourcePoint" />
            <mxPoint x="71" y="819" as="targetPoint" />
          </mxGeometry>
        </mxCell>
        <mxCell id="F9aQJ-cwggNyDFHJlZmO-41" value="삼진관계 : 세 개체가 관계를 맺는 경우" style="text;html=1;align=left;verticalAlign=middle;resizable=0;points=[];autosize=1;strokeColor=none;fillColor=none;fontSize=16;" parent="1" vertex="1">
          <mxGeometry x="-60" y="747" width="289" height="31" as="geometry" />
        </mxCell>
        <mxCell id="F9aQJ-cwggNyDFHJlZmO-42" value="" style="endArrow=none;html=1;rounded=0;fontSize=12;startSize=8;endSize=8;curved=1;exitX=0.5;exitY=1;exitDx=0;exitDy=0;" parent="1" source="F9aQJ-cwggNyDFHJlZmO-36" target="F9aQJ-cwggNyDFHJlZmO-43" edge="1">
          <mxGeometry relative="1" as="geometry">
            <mxPoint x="71" y="847" as="sourcePoint" />
            <mxPoint x="174" y="903" as="targetPoint" />
            <Array as="points" />
          </mxGeometry>
        </mxCell>
        <mxCell id="F9aQJ-cwggNyDFHJlZmO-43" value="부품" style="whiteSpace=wrap;html=1;align=center;" parent="1" vertex="1">
          <mxGeometry x="81" y="867" width="100" height="40" as="geometry" />
        </mxCell>
        <mxCell id="F9aQJ-cwggNyDFHJlZmO-44" style="edgeStyle=none;curved=1;rounded=0;orthogonalLoop=1;jettySize=auto;html=1;exitX=0.75;exitY=1;exitDx=0;exitDy=0;fontSize=12;startSize=8;endSize=8;" parent="1" source="F9aQJ-cwggNyDFHJlZmO-39" target="F9aQJ-cwggNyDFHJlZmO-39" edge="1">
          <mxGeometry relative="1" as="geometry" />
        </mxCell>
        <mxCell id="F9aQJ-cwggNyDFHJlZmO-47" value="사용" style="shape=rhombus;perimeter=rhombusPerimeter;whiteSpace=wrap;html=1;align=center;" parent="1" vertex="1">
          <mxGeometry x="98" y="980" width="120" height="60" as="geometry" />
        </mxCell>
        <mxCell id="F9aQJ-cwggNyDFHJlZmO-49" value="컴퓨터" style="whiteSpace=wrap;html=1;align=center;" parent="1" vertex="1">
          <mxGeometry x="272" y="990" width="100" height="40" as="geometry" />
        </mxCell>
        <mxCell id="F9aQJ-cwggNyDFHJlZmO-50" value="학생" style="whiteSpace=wrap;html=1;align=center;" parent="1" vertex="1">
          <mxGeometry x="-63" y="990" width="100" height="40" as="geometry" />
        </mxCell>
        <mxCell id="F9aQJ-cwggNyDFHJlZmO-51" value="" style="endArrow=none;html=1;rounded=0;fontSize=12;startSize=8;endSize=8;curved=1;exitX=1;exitY=0.5;exitDx=0;exitDy=0;" parent="1" source="F9aQJ-cwggNyDFHJlZmO-50" edge="1">
          <mxGeometry relative="1" as="geometry">
            <mxPoint x="41" y="1009.5" as="sourcePoint" />
            <mxPoint x="99" y="1010" as="targetPoint" />
          </mxGeometry>
        </mxCell>
        <mxCell id="F9aQJ-cwggNyDFHJlZmO-56" value="1" style="edgeLabel;html=1;align=center;verticalAlign=middle;resizable=0;points=[];fontSize=12;" parent="F9aQJ-cwggNyDFHJlZmO-51" vertex="1" connectable="0">
          <mxGeometry x="0.0486" y="-3" relative="1" as="geometry">
            <mxPoint x="-19" y="-11" as="offset" />
          </mxGeometry>
        </mxCell>
        <mxCell id="F9aQJ-cwggNyDFHJlZmO-52" value="일대일 관계:&amp;nbsp; 좌측 타입의 개체가, 우측 타입의 개체와 일대일 대응&lt;div&gt;&amp;nbsp; &amp;nbsp;- 한 명의 학생이 한 대의 컴퓨터만 사용하는 경우&lt;/div&gt;" style="text;html=1;align=left;verticalAlign=middle;resizable=0;points=[];autosize=1;strokeColor=none;fillColor=none;fontSize=16;" parent="1" vertex="1">
          <mxGeometry x="-60" y="928" width="487" height="50" as="geometry" />
        </mxCell>
        <mxCell id="F9aQJ-cwggNyDFHJlZmO-53" value="" style="endArrow=none;html=1;rounded=0;fontSize=12;startSize=8;endSize=8;curved=1;exitX=1;exitY=0.5;exitDx=0;exitDy=0;entryX=0;entryY=0.5;entryDx=0;entryDy=0;" parent="1" target="F9aQJ-cwggNyDFHJlZmO-49" edge="1">
          <mxGeometry relative="1" as="geometry">
            <mxPoint x="219" y="1010" as="sourcePoint" />
            <mxPoint x="306" y="1010" as="targetPoint" />
          </mxGeometry>
        </mxCell>
        <mxCell id="F9aQJ-cwggNyDFHJlZmO-54" value="1" style="resizable=0;html=1;whiteSpace=wrap;align=right;verticalAlign=bottom;" parent="F9aQJ-cwggNyDFHJlZmO-53" connectable="0" vertex="1">
          <mxGeometry x="1" relative="1" as="geometry" />
        </mxCell>
        <mxCell id="F9aQJ-cwggNyDFHJlZmO-57" value="소속" style="shape=rhombus;perimeter=rhombusPerimeter;whiteSpace=wrap;html=1;align=center;" parent="1" vertex="1">
          <mxGeometry x="112" y="1129" width="120" height="60" as="geometry" />
        </mxCell>
        <mxCell id="F9aQJ-cwggNyDFHJlZmO-58" value="학과" style="whiteSpace=wrap;html=1;align=center;" parent="1" vertex="1">
          <mxGeometry x="286" y="1139" width="100" height="40" as="geometry" />
        </mxCell>
        <mxCell id="F9aQJ-cwggNyDFHJlZmO-59" value="학생" style="whiteSpace=wrap;html=1;align=center;" parent="1" vertex="1">
          <mxGeometry x="-49" y="1139" width="100" height="40" as="geometry" />
        </mxCell>
        <mxCell id="F9aQJ-cwggNyDFHJlZmO-60" value="" style="endArrow=none;html=1;rounded=0;fontSize=12;startSize=8;endSize=8;curved=1;exitX=1;exitY=0.5;exitDx=0;exitDy=0;" parent="1" source="F9aQJ-cwggNyDFHJlZmO-59" edge="1">
          <mxGeometry relative="1" as="geometry">
            <mxPoint x="55" y="1158.5" as="sourcePoint" />
            <mxPoint x="113" y="1159" as="targetPoint" />
          </mxGeometry>
        </mxCell>
        <mxCell id="F9aQJ-cwggNyDFHJlZmO-61" value="N" style="edgeLabel;html=1;align=center;verticalAlign=middle;resizable=0;points=[];fontSize=12;" parent="F9aQJ-cwggNyDFHJlZmO-60" vertex="1" connectable="0">
          <mxGeometry x="0.0486" y="-3" relative="1" as="geometry">
            <mxPoint x="-19" y="-11" as="offset" />
          </mxGeometry>
        </mxCell>
        <mxCell id="F9aQJ-cwggNyDFHJlZmO-62" value="" style="endArrow=none;html=1;rounded=0;fontSize=12;startSize=8;endSize=8;curved=1;exitX=1;exitY=0.5;exitDx=0;exitDy=0;entryX=0;entryY=0.5;entryDx=0;entryDy=0;" parent="1" target="F9aQJ-cwggNyDFHJlZmO-58" edge="1">
          <mxGeometry relative="1" as="geometry">
            <mxPoint x="233" y="1159" as="sourcePoint" />
            <mxPoint x="320" y="1159" as="targetPoint" />
          </mxGeometry>
        </mxCell>
        <mxCell id="F9aQJ-cwggNyDFHJlZmO-63" value="1" style="resizable=0;html=1;whiteSpace=wrap;align=right;verticalAlign=bottom;" parent="F9aQJ-cwggNyDFHJlZmO-62" connectable="0" vertex="1">
          <mxGeometry x="1" relative="1" as="geometry" />
        </mxCell>
        <mxCell id="F9aQJ-cwggNyDFHJlZmO-64" value="일대다 관계(N:1, 1:N) 관계&amp;nbsp; &amp;nbsp;: 가장 많이 볼 수 있는 관계&lt;div&gt;하나의 개체다 다른 개체의 여러 개와 관계 맺는 경우&lt;br&gt;&lt;div&gt;&amp;nbsp; &amp;nbsp;- 하나의 학과에 여러 학생이 소속되는 경우&lt;/div&gt;&lt;/div&gt;" style="text;html=1;align=left;verticalAlign=middle;resizable=0;points=[];autosize=1;strokeColor=none;fillColor=none;fontSize=16;" parent="1" vertex="1">
          <mxGeometry x="-60" y="1062" width="413" height="70" as="geometry" />
        </mxCell>
        <mxCell id="F9aQJ-cwggNyDFHJlZmO-65" value="수강" style="shape=rhombus;perimeter=rhombusPerimeter;whiteSpace=wrap;html=1;align=center;" parent="1" vertex="1">
          <mxGeometry x="105" y="1268" width="120" height="60" as="geometry" />
        </mxCell>
        <mxCell id="F9aQJ-cwggNyDFHJlZmO-66" value="수업" style="whiteSpace=wrap;html=1;align=center;" parent="1" vertex="1">
          <mxGeometry x="279" y="1278" width="100" height="40" as="geometry" />
        </mxCell>
        <mxCell id="F9aQJ-cwggNyDFHJlZmO-67" value="학생" style="whiteSpace=wrap;html=1;align=center;" parent="1" vertex="1">
          <mxGeometry x="-56" y="1278" width="100" height="40" as="geometry" />
        </mxCell>
        <mxCell id="F9aQJ-cwggNyDFHJlZmO-68" value="" style="endArrow=none;html=1;rounded=0;fontSize=12;startSize=8;endSize=8;curved=1;exitX=1;exitY=0.5;exitDx=0;exitDy=0;" parent="1" source="F9aQJ-cwggNyDFHJlZmO-67" edge="1">
          <mxGeometry relative="1" as="geometry">
            <mxPoint x="48" y="1297.5" as="sourcePoint" />
            <mxPoint x="106" y="1298" as="targetPoint" />
          </mxGeometry>
        </mxCell>
        <mxCell id="F9aQJ-cwggNyDFHJlZmO-69" value="N" style="edgeLabel;html=1;align=center;verticalAlign=middle;resizable=0;points=[];fontSize=12;" parent="F9aQJ-cwggNyDFHJlZmO-68" vertex="1" connectable="0">
          <mxGeometry x="0.0486" y="-3" relative="1" as="geometry">
            <mxPoint x="-19" y="-11" as="offset" />
          </mxGeometry>
        </mxCell>
        <mxCell id="F9aQJ-cwggNyDFHJlZmO-70" value="" style="endArrow=none;html=1;rounded=0;fontSize=12;startSize=8;endSize=8;curved=1;exitX=1;exitY=0.5;exitDx=0;exitDy=0;entryX=0;entryY=0.5;entryDx=0;entryDy=0;" parent="1" target="F9aQJ-cwggNyDFHJlZmO-66" edge="1">
          <mxGeometry relative="1" as="geometry">
            <mxPoint x="226" y="1298" as="sourcePoint" />
            <mxPoint x="313" y="1298" as="targetPoint" />
          </mxGeometry>
        </mxCell>
        <mxCell id="F9aQJ-cwggNyDFHJlZmO-71" value="M" style="resizable=0;html=1;whiteSpace=wrap;align=right;verticalAlign=bottom;" parent="F9aQJ-cwggNyDFHJlZmO-70" connectable="0" vertex="1">
          <mxGeometry x="1" relative="1" as="geometry" />
        </mxCell>
        <mxCell id="F9aQJ-cwggNyDFHJlZmO-72" value="다대다 관계(N:M) 관계&amp;nbsp; : 개체가 서로 복합적인 관계를 맺는 경우&lt;div&gt;&lt;div&gt;&amp;nbsp; &amp;nbsp;- 여러 학생이 여러 수업을 수강할 수 있는 관계&lt;/div&gt;&lt;/div&gt;" style="text;html=1;align=left;verticalAlign=middle;resizable=0;points=[];autosize=1;strokeColor=none;fillColor=none;fontSize=16;" parent="1" vertex="1">
          <mxGeometry x="-67" y="1211" width="475" height="50" as="geometry" />
        </mxCell>
      </root>
    </mxGraphModel>
  </diagram>
  <diagram name="매핑(사상)" id="uPBzafU4MtWo41oOLojO">
    <mxGraphModel dx="1129" dy="1628" grid="0" gridSize="10" guides="1" tooltips="1" connect="1" arrows="1" fold="1" page="0" pageScale="1" pageWidth="827" pageHeight="1169" math="0" shadow="0">
      <root>
        <mxCell id="0" />
        <mxCell id="1" parent="0" />
        <mxCell id="gpsAiOPWc0jjLnlwhcFd-3" value="" style="edgeStyle=none;curved=1;rounded=0;orthogonalLoop=1;jettySize=auto;html=1;fontSize=12;startSize=8;endSize=8;endArrow=none;endFill=0;" parent="1" source="gpsAiOPWc0jjLnlwhcFd-1" target="gpsAiOPWc0jjLnlwhcFd-2" edge="1">
          <mxGeometry relative="1" as="geometry" />
        </mxCell>
        <mxCell id="gpsAiOPWc0jjLnlwhcFd-5" value="" style="edgeStyle=none;curved=1;rounded=0;orthogonalLoop=1;jettySize=auto;html=1;fontSize=12;startSize=8;endSize=8;endArrow=none;endFill=0;" parent="1" source="gpsAiOPWc0jjLnlwhcFd-1" target="gpsAiOPWc0jjLnlwhcFd-4" edge="1">
          <mxGeometry relative="1" as="geometry" />
        </mxCell>
        <mxCell id="gpsAiOPWc0jjLnlwhcFd-1" value="직원" style="whiteSpace=wrap;html=1;align=center;" parent="1" vertex="1">
          <mxGeometry x="43" y="-498.5" width="100" height="40" as="geometry" />
        </mxCell>
        <mxCell id="gpsAiOPWc0jjLnlwhcFd-2" value="&lt;u&gt;직원번호&lt;/u&gt;" style="ellipse;whiteSpace=wrap;html=1;" parent="1" vertex="1">
          <mxGeometry x="-85" y="-500.5" width="80" height="44" as="geometry" />
        </mxCell>
        <mxCell id="gpsAiOPWc0jjLnlwhcFd-4" value="이름" style="ellipse;whiteSpace=wrap;html=1;" parent="1" vertex="1">
          <mxGeometry x="-85" y="-444.5" width="80" height="34" as="geometry" />
        </mxCell>
        <mxCell id="gpsAiOPWc0jjLnlwhcFd-8" value="직원(&lt;u&gt;직원번호&lt;/u&gt;, 이름)" style="text;html=1;align=center;verticalAlign=middle;resizable=0;points=[];autosize=1;strokeColor=none;fillColor=none;fontSize=12;fontFamily=Helvetica;fontColor=default;labelBackgroundColor=default;" parent="1" vertex="1">
          <mxGeometry x="333" y="-519" width="129" height="26" as="geometry" />
        </mxCell>
        <mxCell id="NiwkeAhX-QIguB-9NztU-1" value="직원" style="shape=table;startSize=30;container=1;collapsible=1;childLayout=tableLayout;fixedRows=1;rowLines=0;fontStyle=1;align=center;resizeLast=1;html=1;fontFamily=Helvetica;fontSize=12;fontColor=default;labelBackgroundColor=default;" parent="1" vertex="1">
          <mxGeometry x="342" y="-493" width="180" height="120" as="geometry" />
        </mxCell>
        <mxCell id="NiwkeAhX-QIguB-9NztU-2" value="" style="shape=tableRow;horizontal=0;startSize=0;swimlaneHead=0;swimlaneBody=0;fillColor=none;collapsible=0;dropTarget=0;points=[[0,0.5],[1,0.5]];portConstraint=eastwest;top=0;left=0;right=0;bottom=1;fontFamily=Helvetica;fontSize=12;fontColor=default;labelBackgroundColor=default;" parent="NiwkeAhX-QIguB-9NztU-1" vertex="1">
          <mxGeometry y="30" width="180" height="30" as="geometry" />
        </mxCell>
        <mxCell id="NiwkeAhX-QIguB-9NztU-3" value="PK" style="shape=partialRectangle;connectable=0;fillColor=none;top=0;left=0;bottom=0;right=0;fontStyle=1;overflow=hidden;whiteSpace=wrap;html=1;fontFamily=Helvetica;fontSize=12;fontColor=default;labelBackgroundColor=default;" parent="NiwkeAhX-QIguB-9NztU-2" vertex="1">
          <mxGeometry width="30" height="30" as="geometry">
            <mxRectangle width="30" height="30" as="alternateBounds" />
          </mxGeometry>
        </mxCell>
        <mxCell id="NiwkeAhX-QIguB-9NztU-4" value="직원번호" style="shape=partialRectangle;connectable=0;fillColor=none;top=0;left=0;bottom=0;right=0;align=left;spacingLeft=6;fontStyle=5;overflow=hidden;whiteSpace=wrap;html=1;fontFamily=Helvetica;fontSize=12;fontColor=default;labelBackgroundColor=default;" parent="NiwkeAhX-QIguB-9NztU-2" vertex="1">
          <mxGeometry x="30" width="150" height="30" as="geometry">
            <mxRectangle width="150" height="30" as="alternateBounds" />
          </mxGeometry>
        </mxCell>
        <mxCell id="NiwkeAhX-QIguB-9NztU-5" value="" style="shape=tableRow;horizontal=0;startSize=0;swimlaneHead=0;swimlaneBody=0;fillColor=none;collapsible=0;dropTarget=0;points=[[0,0.5],[1,0.5]];portConstraint=eastwest;top=0;left=0;right=0;bottom=0;fontFamily=Helvetica;fontSize=12;fontColor=default;labelBackgroundColor=default;" parent="NiwkeAhX-QIguB-9NztU-1" vertex="1">
          <mxGeometry y="60" width="180" height="30" as="geometry" />
        </mxCell>
        <mxCell id="NiwkeAhX-QIguB-9NztU-6" value="" style="shape=partialRectangle;connectable=0;fillColor=none;top=0;left=0;bottom=0;right=0;editable=1;overflow=hidden;whiteSpace=wrap;html=1;fontFamily=Helvetica;fontSize=12;fontColor=default;labelBackgroundColor=default;" parent="NiwkeAhX-QIguB-9NztU-5" vertex="1">
          <mxGeometry width="30" height="30" as="geometry">
            <mxRectangle width="30" height="30" as="alternateBounds" />
          </mxGeometry>
        </mxCell>
        <mxCell id="NiwkeAhX-QIguB-9NztU-7" value="이름" style="shape=partialRectangle;connectable=0;fillColor=none;top=0;left=0;bottom=0;right=0;align=left;spacingLeft=6;overflow=hidden;whiteSpace=wrap;html=1;fontFamily=Helvetica;fontSize=12;fontColor=default;labelBackgroundColor=default;" parent="NiwkeAhX-QIguB-9NztU-5" vertex="1">
          <mxGeometry x="30" width="150" height="30" as="geometry">
            <mxRectangle width="150" height="30" as="alternateBounds" />
          </mxGeometry>
        </mxCell>
        <mxCell id="NiwkeAhX-QIguB-9NztU-11" value="" style="shape=tableRow;horizontal=0;startSize=0;swimlaneHead=0;swimlaneBody=0;fillColor=none;collapsible=0;dropTarget=0;points=[[0,0.5],[1,0.5]];portConstraint=eastwest;top=0;left=0;right=0;bottom=0;fontFamily=Helvetica;fontSize=12;fontColor=default;labelBackgroundColor=default;" parent="NiwkeAhX-QIguB-9NztU-1" vertex="1">
          <mxGeometry y="90" width="180" height="30" as="geometry" />
        </mxCell>
        <mxCell id="NiwkeAhX-QIguB-9NztU-12" value="" style="shape=partialRectangle;connectable=0;fillColor=none;top=0;left=0;bottom=0;right=0;editable=1;overflow=hidden;whiteSpace=wrap;html=1;fontFamily=Helvetica;fontSize=12;fontColor=default;labelBackgroundColor=default;" parent="NiwkeAhX-QIguB-9NztU-11" vertex="1">
          <mxGeometry width="30" height="30" as="geometry">
            <mxRectangle width="30" height="30" as="alternateBounds" />
          </mxGeometry>
        </mxCell>
        <mxCell id="NiwkeAhX-QIguB-9NztU-13" value="..." style="shape=partialRectangle;connectable=0;fillColor=none;top=0;left=0;bottom=0;right=0;align=left;spacingLeft=6;overflow=hidden;whiteSpace=wrap;html=1;fontFamily=Helvetica;fontSize=12;fontColor=default;labelBackgroundColor=default;" parent="NiwkeAhX-QIguB-9NztU-11" vertex="1">
          <mxGeometry x="30" width="150" height="30" as="geometry">
            <mxRectangle width="150" height="30" as="alternateBounds" />
          </mxGeometry>
        </mxCell>
        <mxCell id="NiwkeAhX-QIguB-9NztU-14" value="ER 모델을 관계 데이터 모델로 매핑하기" style="text;html=1;align=center;verticalAlign=middle;resizable=0;points=[];autosize=1;strokeColor=none;fillColor=none;fontSize=12;fontFamily=Helvetica;fontColor=default;labelBackgroundColor=default;fontStyle=1" parent="1" vertex="1">
          <mxGeometry x="125" y="-590" width="231" height="26" as="geometry" />
        </mxCell>
        <mxCell id="NiwkeAhX-QIguB-9NztU-15" value="ER 모델" style="text;html=1;align=center;verticalAlign=middle;resizable=0;points=[];autosize=1;strokeColor=none;fillColor=none;fontSize=12;fontFamily=Helvetica;fontColor=default;labelBackgroundColor=default;fontStyle=1" parent="1" vertex="1">
          <mxGeometry x="-5.5" y="-539" width="62" height="26" as="geometry" />
        </mxCell>
        <mxCell id="NiwkeAhX-QIguB-9NztU-16" value="관계 데이터 모델" style="text;html=1;align=center;verticalAlign=middle;resizable=0;points=[];autosize=1;strokeColor=none;fillColor=none;fontSize=12;fontFamily=Helvetica;fontColor=default;labelBackgroundColor=default;fontStyle=1" parent="1" vertex="1">
          <mxGeometry x="382" y="-554" width="109" height="26" as="geometry" />
        </mxCell>
        <mxCell id="NiwkeAhX-QIguB-9NztU-17" value="" style="html=1;shadow=0;dashed=0;align=center;verticalAlign=middle;shape=mxgraph.arrows2.arrow;dy=0.6;dx=40;notch=0;fontFamily=Helvetica;fontSize=12;fontColor=default;labelBackgroundColor=default;" parent="1" vertex="1">
          <mxGeometry x="218" y="-478" width="76" height="52" as="geometry" />
        </mxCell>
        <mxCell id="Krt29Ghbll7f2ohPPhiM-9" value="" style="edgeStyle=none;curved=1;rounded=0;orthogonalLoop=1;jettySize=auto;html=1;strokeColor=default;align=center;verticalAlign=middle;fontFamily=Helvetica;fontSize=12;fontColor=default;labelBackgroundColor=default;startSize=8;endArrow=none;endFill=0;endSize=8;" parent="1" source="Krt29Ghbll7f2ohPPhiM-1" target="Krt29Ghbll7f2ohPPhiM-8" edge="1">
          <mxGeometry relative="1" as="geometry" />
        </mxCell>
        <mxCell id="Krt29Ghbll7f2ohPPhiM-10" value="1" style="edgeLabel;html=1;align=center;verticalAlign=middle;resizable=0;points=[];fontSize=12;fontFamily=Helvetica;fontColor=default;labelBackgroundColor=default;" parent="Krt29Ghbll7f2ohPPhiM-9" vertex="1" connectable="0">
          <mxGeometry x="0.471" relative="1" as="geometry">
            <mxPoint x="5" y="-12" as="offset" />
          </mxGeometry>
        </mxCell>
        <mxCell id="Krt29Ghbll7f2ohPPhiM-1" value="소속" style="shape=rhombus;perimeter=rhombusPerimeter;whiteSpace=wrap;html=1;align=center;" parent="1" vertex="1">
          <mxGeometry x="49" y="-299.5" width="113" height="57" as="geometry" />
        </mxCell>
        <mxCell id="Krt29Ghbll7f2ohPPhiM-29" value="" style="edgeStyle=none;curved=1;rounded=0;orthogonalLoop=1;jettySize=auto;html=1;strokeColor=default;align=center;verticalAlign=middle;fontFamily=Helvetica;fontSize=12;fontColor=default;labelBackgroundColor=default;startSize=8;endArrow=none;endFill=0;endSize=8;" parent="1" source="Krt29Ghbll7f2ohPPhiM-3" target="Krt29Ghbll7f2ohPPhiM-28" edge="1">
          <mxGeometry relative="1" as="geometry" />
        </mxCell>
        <mxCell id="Krt29Ghbll7f2ohPPhiM-31" value="" style="edgeStyle=none;curved=1;rounded=0;orthogonalLoop=1;jettySize=auto;html=1;strokeColor=default;align=center;verticalAlign=middle;fontFamily=Helvetica;fontSize=12;fontColor=default;labelBackgroundColor=default;startSize=8;endArrow=none;endFill=0;endSize=8;" parent="1" source="Krt29Ghbll7f2ohPPhiM-3" target="Krt29Ghbll7f2ohPPhiM-30" edge="1">
          <mxGeometry relative="1" as="geometry" />
        </mxCell>
        <mxCell id="Krt29Ghbll7f2ohPPhiM-3" value="학생" style="whiteSpace=wrap;html=1;align=center;" parent="1" vertex="1">
          <mxGeometry x="-107" y="-291" width="100" height="40" as="geometry" />
        </mxCell>
        <mxCell id="Krt29Ghbll7f2ohPPhiM-4" value="" style="endArrow=none;html=1;rounded=0;fontSize=12;startSize=8;endSize=8;curved=1;exitX=1;exitY=0.5;exitDx=0;exitDy=0;entryX=0;entryY=0.5;entryDx=0;entryDy=0;endFill=0;" parent="1" source="Krt29Ghbll7f2ohPPhiM-3" target="Krt29Ghbll7f2ohPPhiM-1" edge="1">
          <mxGeometry relative="1" as="geometry">
            <mxPoint x="-3" y="-271.5" as="sourcePoint" />
            <mxPoint x="55" y="-271" as="targetPoint" />
          </mxGeometry>
        </mxCell>
        <mxCell id="Krt29Ghbll7f2ohPPhiM-5" value="N" style="edgeLabel;html=1;align=center;verticalAlign=middle;resizable=0;points=[];fontSize=12;" parent="Krt29Ghbll7f2ohPPhiM-4" vertex="1" connectable="0">
          <mxGeometry x="0.0486" y="-3" relative="1" as="geometry">
            <mxPoint x="-19" y="-11" as="offset" />
          </mxGeometry>
        </mxCell>
        <mxCell id="Krt29Ghbll7f2ohPPhiM-33" value="" style="edgeStyle=none;curved=1;rounded=0;orthogonalLoop=1;jettySize=auto;html=1;strokeColor=default;align=center;verticalAlign=middle;fontFamily=Helvetica;fontSize=12;fontColor=default;labelBackgroundColor=default;startSize=8;endArrow=none;endFill=0;endSize=8;" parent="1" source="Krt29Ghbll7f2ohPPhiM-8" target="Krt29Ghbll7f2ohPPhiM-32" edge="1">
          <mxGeometry relative="1" as="geometry" />
        </mxCell>
        <mxCell id="Krt29Ghbll7f2ohPPhiM-35" value="" style="edgeStyle=none;curved=1;rounded=0;orthogonalLoop=1;jettySize=auto;html=1;strokeColor=default;align=center;verticalAlign=middle;fontFamily=Helvetica;fontSize=12;fontColor=default;labelBackgroundColor=default;startSize=8;endArrow=none;endFill=0;endSize=8;" parent="1" source="Krt29Ghbll7f2ohPPhiM-8" target="Krt29Ghbll7f2ohPPhiM-34" edge="1">
          <mxGeometry relative="1" as="geometry" />
        </mxCell>
        <mxCell id="Krt29Ghbll7f2ohPPhiM-8" value="학과" style="whiteSpace=wrap;html=1;" parent="1" vertex="1">
          <mxGeometry x="209" y="-292.5" width="100.5" height="41.5" as="geometry" />
        </mxCell>
        <mxCell id="Krt29Ghbll7f2ohPPhiM-15" value="학생" style="shape=table;startSize=30;container=1;collapsible=1;childLayout=tableLayout;fixedRows=1;rowLines=0;fontStyle=1;align=center;resizeLast=1;html=1;fontFamily=Helvetica;fontSize=12;fontColor=default;labelBackgroundColor=default;" parent="1" vertex="1">
          <mxGeometry x="402" y="-313" width="104" height="120" as="geometry">
            <mxRectangle x="404" y="-330" width="59" height="30" as="alternateBounds" />
          </mxGeometry>
        </mxCell>
        <mxCell id="Krt29Ghbll7f2ohPPhiM-16" value="" style="shape=tableRow;horizontal=0;startSize=0;swimlaneHead=0;swimlaneBody=0;fillColor=none;collapsible=0;dropTarget=0;points=[[0,0.5],[1,0.5]];portConstraint=eastwest;top=0;left=0;right=0;bottom=1;fontFamily=Helvetica;fontSize=12;fontColor=default;labelBackgroundColor=default;" parent="Krt29Ghbll7f2ohPPhiM-15" vertex="1">
          <mxGeometry y="30" width="104" height="30" as="geometry" />
        </mxCell>
        <mxCell id="Krt29Ghbll7f2ohPPhiM-17" value="PK" style="shape=partialRectangle;connectable=0;fillColor=none;top=0;left=0;bottom=0;right=0;fontStyle=1;overflow=hidden;whiteSpace=wrap;html=1;fontFamily=Helvetica;fontSize=12;fontColor=default;labelBackgroundColor=default;" parent="Krt29Ghbll7f2ohPPhiM-16" vertex="1">
          <mxGeometry width="30" height="30" as="geometry">
            <mxRectangle width="30" height="30" as="alternateBounds" />
          </mxGeometry>
        </mxCell>
        <mxCell id="Krt29Ghbll7f2ohPPhiM-18" value="학번" style="shape=partialRectangle;connectable=0;fillColor=none;top=0;left=0;bottom=0;right=0;align=left;spacingLeft=6;fontStyle=5;overflow=hidden;whiteSpace=wrap;html=1;fontFamily=Helvetica;fontSize=12;fontColor=default;labelBackgroundColor=default;" parent="Krt29Ghbll7f2ohPPhiM-16" vertex="1">
          <mxGeometry x="30" width="74" height="30" as="geometry">
            <mxRectangle width="74" height="30" as="alternateBounds" />
          </mxGeometry>
        </mxCell>
        <mxCell id="Krt29Ghbll7f2ohPPhiM-19" value="" style="shape=tableRow;horizontal=0;startSize=0;swimlaneHead=0;swimlaneBody=0;fillColor=none;collapsible=0;dropTarget=0;points=[[0,0.5],[1,0.5]];portConstraint=eastwest;top=0;left=0;right=0;bottom=0;fontFamily=Helvetica;fontSize=12;fontColor=default;labelBackgroundColor=default;" parent="Krt29Ghbll7f2ohPPhiM-15" vertex="1">
          <mxGeometry y="60" width="104" height="30" as="geometry" />
        </mxCell>
        <mxCell id="Krt29Ghbll7f2ohPPhiM-20" value="" style="shape=partialRectangle;connectable=0;fillColor=none;top=0;left=0;bottom=0;right=0;editable=1;overflow=hidden;whiteSpace=wrap;html=1;fontFamily=Helvetica;fontSize=12;fontColor=default;labelBackgroundColor=default;" parent="Krt29Ghbll7f2ohPPhiM-19" vertex="1">
          <mxGeometry width="30" height="30" as="geometry">
            <mxRectangle width="30" height="30" as="alternateBounds" />
          </mxGeometry>
        </mxCell>
        <mxCell id="Krt29Ghbll7f2ohPPhiM-21" value="이름" style="shape=partialRectangle;connectable=0;fillColor=none;top=0;left=0;bottom=0;right=0;align=left;spacingLeft=6;overflow=hidden;whiteSpace=wrap;html=1;fontFamily=Helvetica;fontSize=12;fontColor=default;labelBackgroundColor=default;" parent="Krt29Ghbll7f2ohPPhiM-19" vertex="1">
          <mxGeometry x="30" width="74" height="30" as="geometry">
            <mxRectangle width="74" height="30" as="alternateBounds" />
          </mxGeometry>
        </mxCell>
        <mxCell id="Krt29Ghbll7f2ohPPhiM-25" value="" style="shape=tableRow;horizontal=0;startSize=0;swimlaneHead=0;swimlaneBody=0;fillColor=none;collapsible=0;dropTarget=0;points=[[0,0.5],[1,0.5]];portConstraint=eastwest;top=0;left=0;right=0;bottom=0;fontFamily=Helvetica;fontSize=12;fontColor=default;labelBackgroundColor=default;" parent="Krt29Ghbll7f2ohPPhiM-15" vertex="1">
          <mxGeometry y="90" width="104" height="30" as="geometry" />
        </mxCell>
        <mxCell id="Krt29Ghbll7f2ohPPhiM-26" value="FK" style="shape=partialRectangle;connectable=0;fillColor=none;top=0;left=0;bottom=0;right=0;editable=1;overflow=hidden;whiteSpace=wrap;html=1;fontFamily=Helvetica;fontSize=12;fontColor=default;labelBackgroundColor=default;" parent="Krt29Ghbll7f2ohPPhiM-25" vertex="1">
          <mxGeometry width="30" height="30" as="geometry">
            <mxRectangle width="30" height="30" as="alternateBounds" />
          </mxGeometry>
        </mxCell>
        <mxCell id="Krt29Ghbll7f2ohPPhiM-27" value="학과코드" style="shape=partialRectangle;connectable=0;fillColor=none;top=0;left=0;bottom=0;right=0;align=left;spacingLeft=6;overflow=hidden;whiteSpace=wrap;html=1;fontFamily=Helvetica;fontSize=12;fontColor=default;labelBackgroundColor=default;" parent="Krt29Ghbll7f2ohPPhiM-25" vertex="1">
          <mxGeometry x="30" width="74" height="30" as="geometry">
            <mxRectangle width="74" height="30" as="alternateBounds" />
          </mxGeometry>
        </mxCell>
        <mxCell id="Krt29Ghbll7f2ohPPhiM-28" value="&lt;u&gt;학번&lt;/u&gt;" style="ellipse;whiteSpace=wrap;html=1;" parent="1" vertex="1">
          <mxGeometry x="-97" y="-231" width="80" height="34" as="geometry" />
        </mxCell>
        <mxCell id="Krt29Ghbll7f2ohPPhiM-30" value="이름" style="ellipse;whiteSpace=wrap;html=1;" parent="1" vertex="1">
          <mxGeometry x="-187" y="-234" width="80" height="37" as="geometry" />
        </mxCell>
        <mxCell id="Krt29Ghbll7f2ohPPhiM-32" value="&lt;u&gt;학과코드&lt;/u&gt;" style="ellipse;whiteSpace=wrap;html=1;" parent="1" vertex="1">
          <mxGeometry x="151" y="-228.25" width="80" height="41" as="geometry" />
        </mxCell>
        <mxCell id="Krt29Ghbll7f2ohPPhiM-34" value="학과명" style="ellipse;whiteSpace=wrap;html=1;" parent="1" vertex="1">
          <mxGeometry x="238" y="-225.5" width="80" height="35.5" as="geometry" />
        </mxCell>
        <mxCell id="Krt29Ghbll7f2ohPPhiM-36" value="학과" style="shape=table;startSize=30;container=1;collapsible=1;childLayout=tableLayout;fixedRows=1;rowLines=0;fontStyle=1;align=center;resizeLast=1;html=1;fontFamily=Helvetica;fontSize=12;fontColor=default;labelBackgroundColor=default;" parent="1" vertex="1">
          <mxGeometry x="541" y="-313" width="104" height="120" as="geometry" />
        </mxCell>
        <mxCell id="Krt29Ghbll7f2ohPPhiM-37" value="" style="shape=tableRow;horizontal=0;startSize=0;swimlaneHead=0;swimlaneBody=0;fillColor=none;collapsible=0;dropTarget=0;points=[[0,0.5],[1,0.5]];portConstraint=eastwest;top=0;left=0;right=0;bottom=1;fontFamily=Helvetica;fontSize=12;fontColor=default;labelBackgroundColor=default;" parent="Krt29Ghbll7f2ohPPhiM-36" vertex="1">
          <mxGeometry y="30" width="104" height="30" as="geometry" />
        </mxCell>
        <mxCell id="Krt29Ghbll7f2ohPPhiM-38" value="PK" style="shape=partialRectangle;connectable=0;fillColor=none;top=0;left=0;bottom=0;right=0;fontStyle=1;overflow=hidden;whiteSpace=wrap;html=1;fontFamily=Helvetica;fontSize=12;fontColor=default;labelBackgroundColor=default;" parent="Krt29Ghbll7f2ohPPhiM-37" vertex="1">
          <mxGeometry width="30" height="30" as="geometry">
            <mxRectangle width="30" height="30" as="alternateBounds" />
          </mxGeometry>
        </mxCell>
        <mxCell id="Krt29Ghbll7f2ohPPhiM-39" value="학과코드" style="shape=partialRectangle;connectable=0;fillColor=none;top=0;left=0;bottom=0;right=0;align=left;spacingLeft=6;fontStyle=5;overflow=hidden;whiteSpace=wrap;html=1;fontFamily=Helvetica;fontSize=12;fontColor=default;labelBackgroundColor=default;" parent="Krt29Ghbll7f2ohPPhiM-37" vertex="1">
          <mxGeometry x="30" width="74" height="30" as="geometry">
            <mxRectangle width="74" height="30" as="alternateBounds" />
          </mxGeometry>
        </mxCell>
        <mxCell id="Krt29Ghbll7f2ohPPhiM-40" value="" style="shape=tableRow;horizontal=0;startSize=0;swimlaneHead=0;swimlaneBody=0;fillColor=none;collapsible=0;dropTarget=0;points=[[0,0.5],[1,0.5]];portConstraint=eastwest;top=0;left=0;right=0;bottom=0;fontFamily=Helvetica;fontSize=12;fontColor=default;labelBackgroundColor=default;" parent="Krt29Ghbll7f2ohPPhiM-36" vertex="1">
          <mxGeometry y="60" width="104" height="30" as="geometry" />
        </mxCell>
        <mxCell id="Krt29Ghbll7f2ohPPhiM-41" value="" style="shape=partialRectangle;connectable=0;fillColor=none;top=0;left=0;bottom=0;right=0;editable=1;overflow=hidden;whiteSpace=wrap;html=1;fontFamily=Helvetica;fontSize=12;fontColor=default;labelBackgroundColor=default;" parent="Krt29Ghbll7f2ohPPhiM-40" vertex="1">
          <mxGeometry width="30" height="30" as="geometry">
            <mxRectangle width="30" height="30" as="alternateBounds" />
          </mxGeometry>
        </mxCell>
        <mxCell id="Krt29Ghbll7f2ohPPhiM-42" value="학과명" style="shape=partialRectangle;connectable=0;fillColor=none;top=0;left=0;bottom=0;right=0;align=left;spacingLeft=6;overflow=hidden;whiteSpace=wrap;html=1;fontFamily=Helvetica;fontSize=12;fontColor=default;labelBackgroundColor=default;" parent="Krt29Ghbll7f2ohPPhiM-40" vertex="1">
          <mxGeometry x="30" width="74" height="30" as="geometry">
            <mxRectangle width="74" height="30" as="alternateBounds" />
          </mxGeometry>
        </mxCell>
        <mxCell id="Krt29Ghbll7f2ohPPhiM-43" value="" style="shape=tableRow;horizontal=0;startSize=0;swimlaneHead=0;swimlaneBody=0;fillColor=none;collapsible=0;dropTarget=0;points=[[0,0.5],[1,0.5]];portConstraint=eastwest;top=0;left=0;right=0;bottom=0;fontFamily=Helvetica;fontSize=12;fontColor=default;labelBackgroundColor=default;" parent="Krt29Ghbll7f2ohPPhiM-36" vertex="1">
          <mxGeometry y="90" width="104" height="30" as="geometry" />
        </mxCell>
        <mxCell id="Krt29Ghbll7f2ohPPhiM-44" value="" style="shape=partialRectangle;connectable=0;fillColor=none;top=0;left=0;bottom=0;right=0;editable=1;overflow=hidden;whiteSpace=wrap;html=1;fontFamily=Helvetica;fontSize=12;fontColor=default;labelBackgroundColor=default;" parent="Krt29Ghbll7f2ohPPhiM-43" vertex="1">
          <mxGeometry width="30" height="30" as="geometry">
            <mxRectangle width="30" height="30" as="alternateBounds" />
          </mxGeometry>
        </mxCell>
        <mxCell id="Krt29Ghbll7f2ohPPhiM-45" value="" style="shape=partialRectangle;connectable=0;fillColor=none;top=0;left=0;bottom=0;right=0;align=left;spacingLeft=6;overflow=hidden;whiteSpace=wrap;html=1;fontFamily=Helvetica;fontSize=12;fontColor=default;labelBackgroundColor=default;" parent="Krt29Ghbll7f2ohPPhiM-43" vertex="1">
          <mxGeometry x="30" width="74" height="30" as="geometry">
            <mxRectangle width="74" height="30" as="alternateBounds" />
          </mxGeometry>
        </mxCell>
        <mxCell id="Krt29Ghbll7f2ohPPhiM-46" value="이진 1:N관계 매핑 : 관계(소속)를 학생(N)에서 학과(1)의 기본키를 외래키(FK)로 사용" style="text;html=1;align=left;verticalAlign=middle;resizable=0;points=[];autosize=1;strokeColor=none;fillColor=none;fontSize=12;fontFamily=Helvetica;fontColor=default;labelBackgroundColor=default;fontStyle=1" parent="1" vertex="1">
          <mxGeometry x="-97" y="-339" width="469" height="26" as="geometry" />
        </mxCell>
        <mxCell id="Krt29Ghbll7f2ohPPhiM-47" value="" style="html=1;shadow=0;dashed=0;align=center;verticalAlign=middle;shape=mxgraph.arrows2.arrow;dy=0.6;dx=40;notch=0;fontFamily=Helvetica;fontSize=12;fontColor=default;labelBackgroundColor=default;" parent="1" vertex="1">
          <mxGeometry x="325" y="-281" width="59" height="42" as="geometry" />
        </mxCell>
        <mxCell id="Krt29Ghbll7f2ohPPhiM-48" value="" style="edgeStyle=none;curved=1;rounded=0;orthogonalLoop=1;jettySize=auto;html=1;strokeColor=default;align=center;verticalAlign=middle;fontFamily=Helvetica;fontSize=12;fontColor=default;labelBackgroundColor=default;startSize=8;endArrow=none;endFill=0;endSize=8;" parent="1" source="Krt29Ghbll7f2ohPPhiM-50" target="Krt29Ghbll7f2ohPPhiM-58" edge="1">
          <mxGeometry relative="1" as="geometry" />
        </mxCell>
        <mxCell id="Krt29Ghbll7f2ohPPhiM-49" value="1" style="edgeLabel;html=1;align=center;verticalAlign=middle;resizable=0;points=[];fontSize=12;fontFamily=Helvetica;fontColor=default;labelBackgroundColor=default;" parent="Krt29Ghbll7f2ohPPhiM-48" vertex="1" connectable="0">
          <mxGeometry x="0.471" relative="1" as="geometry">
            <mxPoint x="5" y="-9" as="offset" />
          </mxGeometry>
        </mxCell>
        <mxCell id="Krt29Ghbll7f2ohPPhiM-50" value="사용" style="shape=rhombus;perimeter=rhombusPerimeter;whiteSpace=wrap;html=1;align=center;" parent="1" vertex="1">
          <mxGeometry x="28" y="-91" width="113" height="57" as="geometry" />
        </mxCell>
        <mxCell id="Krt29Ghbll7f2ohPPhiM-51" value="" style="edgeStyle=none;curved=1;rounded=0;orthogonalLoop=1;jettySize=auto;html=1;strokeColor=default;align=center;verticalAlign=middle;fontFamily=Helvetica;fontSize=12;fontColor=default;labelBackgroundColor=default;startSize=8;endArrow=none;endFill=0;endSize=8;" parent="1" source="Krt29Ghbll7f2ohPPhiM-53" target="Krt29Ghbll7f2ohPPhiM-59" edge="1">
          <mxGeometry relative="1" as="geometry" />
        </mxCell>
        <mxCell id="Krt29Ghbll7f2ohPPhiM-52" value="" style="edgeStyle=none;curved=1;rounded=0;orthogonalLoop=1;jettySize=auto;html=1;strokeColor=default;align=center;verticalAlign=middle;fontFamily=Helvetica;fontSize=12;fontColor=default;labelBackgroundColor=default;startSize=8;endArrow=none;endFill=0;endSize=8;" parent="1" source="Krt29Ghbll7f2ohPPhiM-53" target="Krt29Ghbll7f2ohPPhiM-60" edge="1">
          <mxGeometry relative="1" as="geometry" />
        </mxCell>
        <mxCell id="Krt29Ghbll7f2ohPPhiM-53" value="학생" style="whiteSpace=wrap;html=1;align=center;" parent="1" vertex="1">
          <mxGeometry x="-128" y="-82.5" width="100" height="40" as="geometry" />
        </mxCell>
        <mxCell id="Krt29Ghbll7f2ohPPhiM-54" value="" style="endArrow=none;html=1;rounded=0;fontSize=12;startSize=8;endSize=8;curved=1;exitX=1;exitY=0.5;exitDx=0;exitDy=0;entryX=0;entryY=0.5;entryDx=0;entryDy=0;endFill=0;" parent="1" source="Krt29Ghbll7f2ohPPhiM-53" target="Krt29Ghbll7f2ohPPhiM-50" edge="1">
          <mxGeometry relative="1" as="geometry">
            <mxPoint x="-24" y="-63" as="sourcePoint" />
            <mxPoint x="34" y="-62.5" as="targetPoint" />
          </mxGeometry>
        </mxCell>
        <mxCell id="Krt29Ghbll7f2ohPPhiM-55" value="1" style="edgeLabel;html=1;align=center;verticalAlign=middle;resizable=0;points=[];fontSize=12;" parent="Krt29Ghbll7f2ohPPhiM-54" vertex="1" connectable="0">
          <mxGeometry x="0.0486" y="-3" relative="1" as="geometry">
            <mxPoint x="-19" y="-11" as="offset" />
          </mxGeometry>
        </mxCell>
        <mxCell id="Krt29Ghbll7f2ohPPhiM-56" value="" style="edgeStyle=none;curved=1;rounded=0;orthogonalLoop=1;jettySize=auto;html=1;strokeColor=default;align=center;verticalAlign=middle;fontFamily=Helvetica;fontSize=12;fontColor=default;labelBackgroundColor=default;startSize=8;endArrow=none;endFill=0;endSize=8;" parent="1" source="Krt29Ghbll7f2ohPPhiM-58" target="Krt29Ghbll7f2ohPPhiM-61" edge="1">
          <mxGeometry relative="1" as="geometry" />
        </mxCell>
        <mxCell id="Krt29Ghbll7f2ohPPhiM-57" value="" style="edgeStyle=none;curved=1;rounded=0;orthogonalLoop=1;jettySize=auto;html=1;strokeColor=default;align=center;verticalAlign=middle;fontFamily=Helvetica;fontSize=12;fontColor=default;labelBackgroundColor=default;startSize=8;endArrow=none;endFill=0;endSize=8;" parent="1" source="Krt29Ghbll7f2ohPPhiM-58" target="Krt29Ghbll7f2ohPPhiM-62" edge="1">
          <mxGeometry relative="1" as="geometry" />
        </mxCell>
        <mxCell id="Krt29Ghbll7f2ohPPhiM-58" value="컴퓨터" style="whiteSpace=wrap;html=1;" parent="1" vertex="1">
          <mxGeometry x="184" y="-87" width="100.5" height="41.5" as="geometry" />
        </mxCell>
        <mxCell id="Krt29Ghbll7f2ohPPhiM-59" value="&lt;u&gt;학번&lt;/u&gt;" style="ellipse;whiteSpace=wrap;html=1;" parent="1" vertex="1">
          <mxGeometry x="-118" y="-22.5" width="80" height="34" as="geometry" />
        </mxCell>
        <mxCell id="Krt29Ghbll7f2ohPPhiM-60" value="이름" style="ellipse;whiteSpace=wrap;html=1;" parent="1" vertex="1">
          <mxGeometry x="-208" y="-25.5" width="80" height="37" as="geometry" />
        </mxCell>
        <mxCell id="Krt29Ghbll7f2ohPPhiM-61" value="&lt;u&gt;컴퓨터번호&lt;/u&gt;" style="ellipse;whiteSpace=wrap;html=1;" parent="1" vertex="1">
          <mxGeometry x="130" y="-19.75" width="80" height="41" as="geometry" />
        </mxCell>
        <mxCell id="Krt29Ghbll7f2ohPPhiM-62" value="사양" style="ellipse;whiteSpace=wrap;html=1;" parent="1" vertex="1">
          <mxGeometry x="217" y="-17" width="80" height="35.5" as="geometry" />
        </mxCell>
        <mxCell id="Krt29Ghbll7f2ohPPhiM-64" value="학생" style="shape=table;startSize=30;container=1;collapsible=1;childLayout=tableLayout;fixedRows=1;rowLines=0;fontStyle=1;align=center;resizeLast=1;html=1;fontFamily=Helvetica;fontSize=12;fontColor=default;labelBackgroundColor=default;" parent="1" vertex="1">
          <mxGeometry x="378" y="-146" width="104" height="120" as="geometry">
            <mxRectangle x="404" y="-330" width="59" height="30" as="alternateBounds" />
          </mxGeometry>
        </mxCell>
        <mxCell id="Krt29Ghbll7f2ohPPhiM-65" value="" style="shape=tableRow;horizontal=0;startSize=0;swimlaneHead=0;swimlaneBody=0;fillColor=none;collapsible=0;dropTarget=0;points=[[0,0.5],[1,0.5]];portConstraint=eastwest;top=0;left=0;right=0;bottom=1;fontFamily=Helvetica;fontSize=12;fontColor=default;labelBackgroundColor=default;" parent="Krt29Ghbll7f2ohPPhiM-64" vertex="1">
          <mxGeometry y="30" width="104" height="30" as="geometry" />
        </mxCell>
        <mxCell id="Krt29Ghbll7f2ohPPhiM-66" value="PK" style="shape=partialRectangle;connectable=0;fillColor=none;top=0;left=0;bottom=0;right=0;fontStyle=1;overflow=hidden;whiteSpace=wrap;html=1;fontFamily=Helvetica;fontSize=12;fontColor=default;labelBackgroundColor=default;" parent="Krt29Ghbll7f2ohPPhiM-65" vertex="1">
          <mxGeometry width="30" height="30" as="geometry">
            <mxRectangle width="30" height="30" as="alternateBounds" />
          </mxGeometry>
        </mxCell>
        <mxCell id="Krt29Ghbll7f2ohPPhiM-67" value="학번" style="shape=partialRectangle;connectable=0;fillColor=none;top=0;left=0;bottom=0;right=0;align=left;spacingLeft=6;fontStyle=5;overflow=hidden;whiteSpace=wrap;html=1;fontFamily=Helvetica;fontSize=12;fontColor=default;labelBackgroundColor=default;" parent="Krt29Ghbll7f2ohPPhiM-65" vertex="1">
          <mxGeometry x="30" width="74" height="30" as="geometry">
            <mxRectangle width="74" height="30" as="alternateBounds" />
          </mxGeometry>
        </mxCell>
        <mxCell id="Krt29Ghbll7f2ohPPhiM-68" value="" style="shape=tableRow;horizontal=0;startSize=0;swimlaneHead=0;swimlaneBody=0;fillColor=none;collapsible=0;dropTarget=0;points=[[0,0.5],[1,0.5]];portConstraint=eastwest;top=0;left=0;right=0;bottom=0;fontFamily=Helvetica;fontSize=12;fontColor=default;labelBackgroundColor=default;" parent="Krt29Ghbll7f2ohPPhiM-64" vertex="1">
          <mxGeometry y="60" width="104" height="30" as="geometry" />
        </mxCell>
        <mxCell id="Krt29Ghbll7f2ohPPhiM-69" value="" style="shape=partialRectangle;connectable=0;fillColor=none;top=0;left=0;bottom=0;right=0;editable=1;overflow=hidden;whiteSpace=wrap;html=1;fontFamily=Helvetica;fontSize=12;fontColor=default;labelBackgroundColor=default;" parent="Krt29Ghbll7f2ohPPhiM-68" vertex="1">
          <mxGeometry width="30" height="30" as="geometry">
            <mxRectangle width="30" height="30" as="alternateBounds" />
          </mxGeometry>
        </mxCell>
        <mxCell id="Krt29Ghbll7f2ohPPhiM-70" value="이름" style="shape=partialRectangle;connectable=0;fillColor=none;top=0;left=0;bottom=0;right=0;align=left;spacingLeft=6;overflow=hidden;whiteSpace=wrap;html=1;fontFamily=Helvetica;fontSize=12;fontColor=default;labelBackgroundColor=default;" parent="Krt29Ghbll7f2ohPPhiM-68" vertex="1">
          <mxGeometry x="30" width="74" height="30" as="geometry">
            <mxRectangle width="74" height="30" as="alternateBounds" />
          </mxGeometry>
        </mxCell>
        <mxCell id="Krt29Ghbll7f2ohPPhiM-71" value="" style="shape=tableRow;horizontal=0;startSize=0;swimlaneHead=0;swimlaneBody=0;fillColor=none;collapsible=0;dropTarget=0;points=[[0,0.5],[1,0.5]];portConstraint=eastwest;top=0;left=0;right=0;bottom=0;fontFamily=Helvetica;fontSize=12;fontColor=default;labelBackgroundColor=default;" parent="Krt29Ghbll7f2ohPPhiM-64" vertex="1">
          <mxGeometry y="90" width="104" height="30" as="geometry" />
        </mxCell>
        <mxCell id="Krt29Ghbll7f2ohPPhiM-72" value="FK" style="shape=partialRectangle;connectable=0;fillColor=none;top=0;left=0;bottom=0;right=0;editable=1;overflow=hidden;whiteSpace=wrap;html=1;fontFamily=Helvetica;fontSize=12;fontColor=default;labelBackgroundColor=default;" parent="Krt29Ghbll7f2ohPPhiM-71" vertex="1">
          <mxGeometry width="30" height="30" as="geometry">
            <mxRectangle width="30" height="30" as="alternateBounds" />
          </mxGeometry>
        </mxCell>
        <mxCell id="Krt29Ghbll7f2ohPPhiM-73" value="컴퓨터번호" style="shape=partialRectangle;connectable=0;fillColor=none;top=0;left=0;bottom=0;right=0;align=left;spacingLeft=6;overflow=hidden;whiteSpace=wrap;html=1;fontFamily=Helvetica;fontSize=12;fontColor=default;labelBackgroundColor=default;" parent="Krt29Ghbll7f2ohPPhiM-71" vertex="1">
          <mxGeometry x="30" width="74" height="30" as="geometry">
            <mxRectangle width="74" height="30" as="alternateBounds" />
          </mxGeometry>
        </mxCell>
        <mxCell id="Krt29Ghbll7f2ohPPhiM-74" value="컴퓨터" style="shape=table;startSize=30;container=1;collapsible=1;childLayout=tableLayout;fixedRows=1;rowLines=0;fontStyle=1;align=center;resizeLast=1;html=1;fontFamily=Helvetica;fontSize=12;fontColor=default;labelBackgroundColor=default;" parent="1" vertex="1">
          <mxGeometry x="517" y="-146" width="104" height="120" as="geometry" />
        </mxCell>
        <mxCell id="Krt29Ghbll7f2ohPPhiM-75" value="" style="shape=tableRow;horizontal=0;startSize=0;swimlaneHead=0;swimlaneBody=0;fillColor=none;collapsible=0;dropTarget=0;points=[[0,0.5],[1,0.5]];portConstraint=eastwest;top=0;left=0;right=0;bottom=1;fontFamily=Helvetica;fontSize=12;fontColor=default;labelBackgroundColor=default;" parent="Krt29Ghbll7f2ohPPhiM-74" vertex="1">
          <mxGeometry y="30" width="104" height="30" as="geometry" />
        </mxCell>
        <mxCell id="Krt29Ghbll7f2ohPPhiM-76" value="PK" style="shape=partialRectangle;connectable=0;fillColor=none;top=0;left=0;bottom=0;right=0;fontStyle=1;overflow=hidden;whiteSpace=wrap;html=1;fontFamily=Helvetica;fontSize=12;fontColor=default;labelBackgroundColor=default;" parent="Krt29Ghbll7f2ohPPhiM-75" vertex="1">
          <mxGeometry width="30" height="30" as="geometry">
            <mxRectangle width="30" height="30" as="alternateBounds" />
          </mxGeometry>
        </mxCell>
        <mxCell id="Krt29Ghbll7f2ohPPhiM-77" value="컴퓨터번호" style="shape=partialRectangle;connectable=0;fillColor=none;top=0;left=0;bottom=0;right=0;align=left;spacingLeft=6;fontStyle=5;overflow=hidden;whiteSpace=wrap;html=1;fontFamily=Helvetica;fontSize=12;fontColor=default;labelBackgroundColor=default;" parent="Krt29Ghbll7f2ohPPhiM-75" vertex="1">
          <mxGeometry x="30" width="74" height="30" as="geometry">
            <mxRectangle width="74" height="30" as="alternateBounds" />
          </mxGeometry>
        </mxCell>
        <mxCell id="Krt29Ghbll7f2ohPPhiM-78" value="" style="shape=tableRow;horizontal=0;startSize=0;swimlaneHead=0;swimlaneBody=0;fillColor=none;collapsible=0;dropTarget=0;points=[[0,0.5],[1,0.5]];portConstraint=eastwest;top=0;left=0;right=0;bottom=0;fontFamily=Helvetica;fontSize=12;fontColor=default;labelBackgroundColor=default;" parent="Krt29Ghbll7f2ohPPhiM-74" vertex="1">
          <mxGeometry y="60" width="104" height="30" as="geometry" />
        </mxCell>
        <mxCell id="Krt29Ghbll7f2ohPPhiM-79" value="" style="shape=partialRectangle;connectable=0;fillColor=none;top=0;left=0;bottom=0;right=0;editable=1;overflow=hidden;whiteSpace=wrap;html=1;fontFamily=Helvetica;fontSize=12;fontColor=default;labelBackgroundColor=default;" parent="Krt29Ghbll7f2ohPPhiM-78" vertex="1">
          <mxGeometry width="30" height="30" as="geometry">
            <mxRectangle width="30" height="30" as="alternateBounds" />
          </mxGeometry>
        </mxCell>
        <mxCell id="Krt29Ghbll7f2ohPPhiM-80" value="사양" style="shape=partialRectangle;connectable=0;fillColor=none;top=0;left=0;bottom=0;right=0;align=left;spacingLeft=6;overflow=hidden;whiteSpace=wrap;html=1;fontFamily=Helvetica;fontSize=12;fontColor=default;labelBackgroundColor=default;" parent="Krt29Ghbll7f2ohPPhiM-78" vertex="1">
          <mxGeometry x="30" width="74" height="30" as="geometry">
            <mxRectangle width="74" height="30" as="alternateBounds" />
          </mxGeometry>
        </mxCell>
        <mxCell id="Krt29Ghbll7f2ohPPhiM-81" value="" style="shape=tableRow;horizontal=0;startSize=0;swimlaneHead=0;swimlaneBody=0;fillColor=none;collapsible=0;dropTarget=0;points=[[0,0.5],[1,0.5]];portConstraint=eastwest;top=0;left=0;right=0;bottom=0;fontFamily=Helvetica;fontSize=12;fontColor=default;labelBackgroundColor=default;" parent="Krt29Ghbll7f2ohPPhiM-74" vertex="1">
          <mxGeometry y="90" width="104" height="30" as="geometry" />
        </mxCell>
        <mxCell id="Krt29Ghbll7f2ohPPhiM-82" value="" style="shape=partialRectangle;connectable=0;fillColor=none;top=0;left=0;bottom=0;right=0;editable=1;overflow=hidden;whiteSpace=wrap;html=1;fontFamily=Helvetica;fontSize=12;fontColor=default;labelBackgroundColor=default;" parent="Krt29Ghbll7f2ohPPhiM-81" vertex="1">
          <mxGeometry width="30" height="30" as="geometry">
            <mxRectangle width="30" height="30" as="alternateBounds" />
          </mxGeometry>
        </mxCell>
        <mxCell id="Krt29Ghbll7f2ohPPhiM-83" value="" style="shape=partialRectangle;connectable=0;fillColor=none;top=0;left=0;bottom=0;right=0;align=left;spacingLeft=6;overflow=hidden;whiteSpace=wrap;html=1;fontFamily=Helvetica;fontSize=12;fontColor=default;labelBackgroundColor=default;" parent="Krt29Ghbll7f2ohPPhiM-81" vertex="1">
          <mxGeometry x="30" width="74" height="30" as="geometry">
            <mxRectangle width="74" height="30" as="alternateBounds" />
          </mxGeometry>
        </mxCell>
        <mxCell id="Krt29Ghbll7f2ohPPhiM-84" value="학생" style="shape=table;startSize=30;container=1;collapsible=1;childLayout=tableLayout;fixedRows=1;rowLines=0;fontStyle=1;align=center;resizeLast=1;html=1;fontFamily=Helvetica;fontSize=12;fontColor=default;labelBackgroundColor=default;" parent="1" vertex="1">
          <mxGeometry x="382" y="6" width="104" height="120" as="geometry">
            <mxRectangle x="404" y="-330" width="59" height="30" as="alternateBounds" />
          </mxGeometry>
        </mxCell>
        <mxCell id="Krt29Ghbll7f2ohPPhiM-85" value="" style="shape=tableRow;horizontal=0;startSize=0;swimlaneHead=0;swimlaneBody=0;fillColor=none;collapsible=0;dropTarget=0;points=[[0,0.5],[1,0.5]];portConstraint=eastwest;top=0;left=0;right=0;bottom=1;fontFamily=Helvetica;fontSize=12;fontColor=default;labelBackgroundColor=default;" parent="Krt29Ghbll7f2ohPPhiM-84" vertex="1">
          <mxGeometry y="30" width="104" height="30" as="geometry" />
        </mxCell>
        <mxCell id="Krt29Ghbll7f2ohPPhiM-86" value="PK" style="shape=partialRectangle;connectable=0;fillColor=none;top=0;left=0;bottom=0;right=0;fontStyle=1;overflow=hidden;whiteSpace=wrap;html=1;fontFamily=Helvetica;fontSize=12;fontColor=default;labelBackgroundColor=default;" parent="Krt29Ghbll7f2ohPPhiM-85" vertex="1">
          <mxGeometry width="30" height="30" as="geometry">
            <mxRectangle width="30" height="30" as="alternateBounds" />
          </mxGeometry>
        </mxCell>
        <mxCell id="Krt29Ghbll7f2ohPPhiM-87" value="학번" style="shape=partialRectangle;connectable=0;fillColor=none;top=0;left=0;bottom=0;right=0;align=left;spacingLeft=6;fontStyle=5;overflow=hidden;whiteSpace=wrap;html=1;fontFamily=Helvetica;fontSize=12;fontColor=default;labelBackgroundColor=default;" parent="Krt29Ghbll7f2ohPPhiM-85" vertex="1">
          <mxGeometry x="30" width="74" height="30" as="geometry">
            <mxRectangle width="74" height="30" as="alternateBounds" />
          </mxGeometry>
        </mxCell>
        <mxCell id="Krt29Ghbll7f2ohPPhiM-88" value="" style="shape=tableRow;horizontal=0;startSize=0;swimlaneHead=0;swimlaneBody=0;fillColor=none;collapsible=0;dropTarget=0;points=[[0,0.5],[1,0.5]];portConstraint=eastwest;top=0;left=0;right=0;bottom=0;fontFamily=Helvetica;fontSize=12;fontColor=default;labelBackgroundColor=default;" parent="Krt29Ghbll7f2ohPPhiM-84" vertex="1">
          <mxGeometry y="60" width="104" height="30" as="geometry" />
        </mxCell>
        <mxCell id="Krt29Ghbll7f2ohPPhiM-89" value="" style="shape=partialRectangle;connectable=0;fillColor=none;top=0;left=0;bottom=0;right=0;editable=1;overflow=hidden;whiteSpace=wrap;html=1;fontFamily=Helvetica;fontSize=12;fontColor=default;labelBackgroundColor=default;" parent="Krt29Ghbll7f2ohPPhiM-88" vertex="1">
          <mxGeometry width="30" height="30" as="geometry">
            <mxRectangle width="30" height="30" as="alternateBounds" />
          </mxGeometry>
        </mxCell>
        <mxCell id="Krt29Ghbll7f2ohPPhiM-90" value="이름" style="shape=partialRectangle;connectable=0;fillColor=none;top=0;left=0;bottom=0;right=0;align=left;spacingLeft=6;overflow=hidden;whiteSpace=wrap;html=1;fontFamily=Helvetica;fontSize=12;fontColor=default;labelBackgroundColor=default;" parent="Krt29Ghbll7f2ohPPhiM-88" vertex="1">
          <mxGeometry x="30" width="74" height="30" as="geometry">
            <mxRectangle width="74" height="30" as="alternateBounds" />
          </mxGeometry>
        </mxCell>
        <mxCell id="Krt29Ghbll7f2ohPPhiM-91" value="" style="shape=tableRow;horizontal=0;startSize=0;swimlaneHead=0;swimlaneBody=0;fillColor=none;collapsible=0;dropTarget=0;points=[[0,0.5],[1,0.5]];portConstraint=eastwest;top=0;left=0;right=0;bottom=0;fontFamily=Helvetica;fontSize=12;fontColor=default;labelBackgroundColor=default;" parent="Krt29Ghbll7f2ohPPhiM-84" vertex="1">
          <mxGeometry y="90" width="104" height="30" as="geometry" />
        </mxCell>
        <mxCell id="Krt29Ghbll7f2ohPPhiM-92" value="" style="shape=partialRectangle;connectable=0;fillColor=none;top=0;left=0;bottom=0;right=0;editable=1;overflow=hidden;whiteSpace=wrap;html=1;fontFamily=Helvetica;fontSize=12;fontColor=default;labelBackgroundColor=default;" parent="Krt29Ghbll7f2ohPPhiM-91" vertex="1">
          <mxGeometry width="30" height="30" as="geometry">
            <mxRectangle width="30" height="30" as="alternateBounds" />
          </mxGeometry>
        </mxCell>
        <mxCell id="Krt29Ghbll7f2ohPPhiM-93" value="" style="shape=partialRectangle;connectable=0;fillColor=none;top=0;left=0;bottom=0;right=0;align=left;spacingLeft=6;overflow=hidden;whiteSpace=wrap;html=1;fontFamily=Helvetica;fontSize=12;fontColor=default;labelBackgroundColor=default;" parent="Krt29Ghbll7f2ohPPhiM-91" vertex="1">
          <mxGeometry x="30" width="74" height="30" as="geometry">
            <mxRectangle width="74" height="30" as="alternateBounds" />
          </mxGeometry>
        </mxCell>
        <mxCell id="Krt29Ghbll7f2ohPPhiM-94" value="컴퓨터" style="shape=table;startSize=30;container=1;collapsible=1;childLayout=tableLayout;fixedRows=1;rowLines=0;fontStyle=1;align=center;resizeLast=1;html=1;fontFamily=Helvetica;fontSize=12;fontColor=default;labelBackgroundColor=default;" parent="1" vertex="1">
          <mxGeometry x="521" y="6" width="104" height="120" as="geometry" />
        </mxCell>
        <mxCell id="Krt29Ghbll7f2ohPPhiM-95" value="" style="shape=tableRow;horizontal=0;startSize=0;swimlaneHead=0;swimlaneBody=0;fillColor=none;collapsible=0;dropTarget=0;points=[[0,0.5],[1,0.5]];portConstraint=eastwest;top=0;left=0;right=0;bottom=1;fontFamily=Helvetica;fontSize=12;fontColor=default;labelBackgroundColor=default;" parent="Krt29Ghbll7f2ohPPhiM-94" vertex="1">
          <mxGeometry y="30" width="104" height="30" as="geometry" />
        </mxCell>
        <mxCell id="Krt29Ghbll7f2ohPPhiM-96" value="PK" style="shape=partialRectangle;connectable=0;fillColor=none;top=0;left=0;bottom=0;right=0;fontStyle=1;overflow=hidden;whiteSpace=wrap;html=1;fontFamily=Helvetica;fontSize=12;fontColor=default;labelBackgroundColor=default;" parent="Krt29Ghbll7f2ohPPhiM-95" vertex="1">
          <mxGeometry width="30" height="30" as="geometry">
            <mxRectangle width="30" height="30" as="alternateBounds" />
          </mxGeometry>
        </mxCell>
        <mxCell id="Krt29Ghbll7f2ohPPhiM-97" value="컴퓨터번호" style="shape=partialRectangle;connectable=0;fillColor=none;top=0;left=0;bottom=0;right=0;align=left;spacingLeft=6;fontStyle=5;overflow=hidden;whiteSpace=wrap;html=1;fontFamily=Helvetica;fontSize=12;fontColor=default;labelBackgroundColor=default;" parent="Krt29Ghbll7f2ohPPhiM-95" vertex="1">
          <mxGeometry x="30" width="74" height="30" as="geometry">
            <mxRectangle width="74" height="30" as="alternateBounds" />
          </mxGeometry>
        </mxCell>
        <mxCell id="Krt29Ghbll7f2ohPPhiM-98" value="" style="shape=tableRow;horizontal=0;startSize=0;swimlaneHead=0;swimlaneBody=0;fillColor=none;collapsible=0;dropTarget=0;points=[[0,0.5],[1,0.5]];portConstraint=eastwest;top=0;left=0;right=0;bottom=0;fontFamily=Helvetica;fontSize=12;fontColor=default;labelBackgroundColor=default;" parent="Krt29Ghbll7f2ohPPhiM-94" vertex="1">
          <mxGeometry y="60" width="104" height="30" as="geometry" />
        </mxCell>
        <mxCell id="Krt29Ghbll7f2ohPPhiM-99" value="" style="shape=partialRectangle;connectable=0;fillColor=none;top=0;left=0;bottom=0;right=0;editable=1;overflow=hidden;whiteSpace=wrap;html=1;fontFamily=Helvetica;fontSize=12;fontColor=default;labelBackgroundColor=default;" parent="Krt29Ghbll7f2ohPPhiM-98" vertex="1">
          <mxGeometry width="30" height="30" as="geometry">
            <mxRectangle width="30" height="30" as="alternateBounds" />
          </mxGeometry>
        </mxCell>
        <mxCell id="Krt29Ghbll7f2ohPPhiM-100" value="사양" style="shape=partialRectangle;connectable=0;fillColor=none;top=0;left=0;bottom=0;right=0;align=left;spacingLeft=6;overflow=hidden;whiteSpace=wrap;html=1;fontFamily=Helvetica;fontSize=12;fontColor=default;labelBackgroundColor=default;" parent="Krt29Ghbll7f2ohPPhiM-98" vertex="1">
          <mxGeometry x="30" width="74" height="30" as="geometry">
            <mxRectangle width="74" height="30" as="alternateBounds" />
          </mxGeometry>
        </mxCell>
        <mxCell id="Krt29Ghbll7f2ohPPhiM-101" value="" style="shape=tableRow;horizontal=0;startSize=0;swimlaneHead=0;swimlaneBody=0;fillColor=none;collapsible=0;dropTarget=0;points=[[0,0.5],[1,0.5]];portConstraint=eastwest;top=0;left=0;right=0;bottom=0;fontFamily=Helvetica;fontSize=12;fontColor=default;labelBackgroundColor=default;" parent="Krt29Ghbll7f2ohPPhiM-94" vertex="1">
          <mxGeometry y="90" width="104" height="30" as="geometry" />
        </mxCell>
        <mxCell id="Krt29Ghbll7f2ohPPhiM-102" value="FK" style="shape=partialRectangle;connectable=0;fillColor=none;top=0;left=0;bottom=0;right=0;editable=1;overflow=hidden;whiteSpace=wrap;html=1;fontFamily=Helvetica;fontSize=12;fontColor=default;labelBackgroundColor=default;" parent="Krt29Ghbll7f2ohPPhiM-101" vertex="1">
          <mxGeometry width="30" height="30" as="geometry">
            <mxRectangle width="30" height="30" as="alternateBounds" />
          </mxGeometry>
        </mxCell>
        <mxCell id="Krt29Ghbll7f2ohPPhiM-103" value="학번" style="shape=partialRectangle;connectable=0;fillColor=none;top=0;left=0;bottom=0;right=0;align=left;spacingLeft=6;overflow=hidden;whiteSpace=wrap;html=1;fontFamily=Helvetica;fontSize=12;fontColor=default;labelBackgroundColor=default;" parent="Krt29Ghbll7f2ohPPhiM-101" vertex="1">
          <mxGeometry x="30" width="74" height="30" as="geometry">
            <mxRectangle width="74" height="30" as="alternateBounds" />
          </mxGeometry>
        </mxCell>
        <mxCell id="Krt29Ghbll7f2ohPPhiM-104" value="이진 1:1 관계 : 왼쪽 또는 오른쪽에 외래키를 두는 방법 모두 매핑 가능" style="text;html=1;align=center;verticalAlign=middle;resizable=0;points=[];autosize=1;strokeColor=none;fillColor=none;fontSize=12;fontFamily=Helvetica;fontColor=default;labelBackgroundColor=default;fontStyle=1" parent="1" vertex="1">
          <mxGeometry x="-123" y="-135" width="390" height="26" as="geometry" />
        </mxCell>
        <mxCell id="x8Nqn1c0Ie5XCqJa0y-S-1" value="&lt;b&gt;OR&lt;/b&gt;" style="text;html=1;align=center;verticalAlign=middle;resizable=0;points=[];autosize=1;strokeColor=none;fillColor=none;" parent="1" vertex="1">
          <mxGeometry x="478" y="-22.5" width="36" height="26" as="geometry" />
        </mxCell>
        <mxCell id="x8Nqn1c0Ie5XCqJa0y-S-2" value="1) 오른쪽 개체 기준으로 외래 키 참조&lt;div&gt;2) 왼쪽 개체 기준으로 외래 키 참조&lt;/div&gt;&lt;div&gt;3) 단일 릴레이션(테이블) 통합&lt;/div&gt;&lt;div&gt;4) 오른쪽, 왼쪽, 관계, 모두 테이블로 표현&lt;/div&gt;&lt;div&gt;&amp;nbsp;&lt;/div&gt;&lt;div&gt;모든 방법이 사용 가능하지만,&amp;nbsp; 일반적으로 튜플 수가 많은 쪽에 외래키를 둔다.&lt;/div&gt;" style="text;html=1;align=left;verticalAlign=middle;resizable=0;points=[];autosize=1;strokeColor=none;fillColor=none;" parent="1" vertex="1">
          <mxGeometry x="-91" y="28" width="433" height="98" as="geometry" />
        </mxCell>
        <mxCell id="x8Nqn1c0Ie5XCqJa0y-S-4" value="" style="edgeStyle=none;curved=1;rounded=0;orthogonalLoop=1;jettySize=auto;html=1;strokeColor=default;align=center;verticalAlign=middle;fontFamily=Helvetica;fontSize=12;fontColor=default;labelBackgroundColor=default;startSize=8;endArrow=none;endFill=0;endSize=8;" parent="1" source="x8Nqn1c0Ie5XCqJa0y-S-6" target="x8Nqn1c0Ie5XCqJa0y-S-14" edge="1">
          <mxGeometry relative="1" as="geometry" />
        </mxCell>
        <mxCell id="x8Nqn1c0Ie5XCqJa0y-S-5" value="M" style="edgeLabel;html=1;align=center;verticalAlign=middle;resizable=0;points=[];fontSize=12;fontFamily=Helvetica;fontColor=default;labelBackgroundColor=default;" parent="x8Nqn1c0Ie5XCqJa0y-S-4" vertex="1" connectable="0">
          <mxGeometry x="0.471" relative="1" as="geometry">
            <mxPoint x="5" y="-9" as="offset" />
          </mxGeometry>
        </mxCell>
        <mxCell id="x8Nqn1c0Ie5XCqJa0y-S-6" value="수업" style="shape=rhombus;perimeter=rhombusPerimeter;whiteSpace=wrap;html=1;align=center;" parent="1" vertex="1">
          <mxGeometry x="51" y="204" width="113" height="57" as="geometry" />
        </mxCell>
        <mxCell id="x8Nqn1c0Ie5XCqJa0y-S-7" value="" style="edgeStyle=none;curved=1;rounded=0;orthogonalLoop=1;jettySize=auto;html=1;strokeColor=default;align=center;verticalAlign=middle;fontFamily=Helvetica;fontSize=12;fontColor=default;labelBackgroundColor=default;startSize=8;endArrow=none;endFill=0;endSize=8;" parent="1" source="x8Nqn1c0Ie5XCqJa0y-S-9" target="x8Nqn1c0Ie5XCqJa0y-S-15" edge="1">
          <mxGeometry relative="1" as="geometry" />
        </mxCell>
        <mxCell id="x8Nqn1c0Ie5XCqJa0y-S-8" value="" style="edgeStyle=none;curved=1;rounded=0;orthogonalLoop=1;jettySize=auto;html=1;strokeColor=default;align=center;verticalAlign=middle;fontFamily=Helvetica;fontSize=12;fontColor=default;labelBackgroundColor=default;startSize=8;endArrow=none;endFill=0;endSize=8;" parent="1" source="x8Nqn1c0Ie5XCqJa0y-S-9" target="x8Nqn1c0Ie5XCqJa0y-S-16" edge="1">
          <mxGeometry relative="1" as="geometry" />
        </mxCell>
        <mxCell id="x8Nqn1c0Ie5XCqJa0y-S-9" value="교수" style="whiteSpace=wrap;html=1;align=center;" parent="1" vertex="1">
          <mxGeometry x="-105" y="212.5" width="100" height="40" as="geometry" />
        </mxCell>
        <mxCell id="x8Nqn1c0Ie5XCqJa0y-S-10" value="" style="endArrow=none;html=1;rounded=0;fontSize=12;startSize=8;endSize=8;curved=1;exitX=1;exitY=0.5;exitDx=0;exitDy=0;entryX=0;entryY=0.5;entryDx=0;entryDy=0;endFill=0;" parent="1" source="x8Nqn1c0Ie5XCqJa0y-S-9" target="x8Nqn1c0Ie5XCqJa0y-S-6" edge="1">
          <mxGeometry relative="1" as="geometry">
            <mxPoint x="-1" y="232" as="sourcePoint" />
            <mxPoint x="57" y="232.5" as="targetPoint" />
          </mxGeometry>
        </mxCell>
        <mxCell id="x8Nqn1c0Ie5XCqJa0y-S-11" value="N" style="edgeLabel;html=1;align=center;verticalAlign=middle;resizable=0;points=[];fontSize=12;" parent="x8Nqn1c0Ie5XCqJa0y-S-10" vertex="1" connectable="0">
          <mxGeometry x="0.0486" y="-3" relative="1" as="geometry">
            <mxPoint x="-19" y="-11" as="offset" />
          </mxGeometry>
        </mxCell>
        <mxCell id="x8Nqn1c0Ie5XCqJa0y-S-12" value="" style="edgeStyle=none;curved=1;rounded=0;orthogonalLoop=1;jettySize=auto;html=1;strokeColor=default;align=center;verticalAlign=middle;fontFamily=Helvetica;fontSize=12;fontColor=default;labelBackgroundColor=default;startSize=8;endArrow=none;endFill=0;endSize=8;" parent="1" source="x8Nqn1c0Ie5XCqJa0y-S-14" target="x8Nqn1c0Ie5XCqJa0y-S-17" edge="1">
          <mxGeometry relative="1" as="geometry" />
        </mxCell>
        <mxCell id="x8Nqn1c0Ie5XCqJa0y-S-13" value="" style="edgeStyle=none;curved=1;rounded=0;orthogonalLoop=1;jettySize=auto;html=1;strokeColor=default;align=center;verticalAlign=middle;fontFamily=Helvetica;fontSize=12;fontColor=default;labelBackgroundColor=default;startSize=8;endArrow=none;endFill=0;endSize=8;" parent="1" source="x8Nqn1c0Ie5XCqJa0y-S-14" target="x8Nqn1c0Ie5XCqJa0y-S-18" edge="1">
          <mxGeometry relative="1" as="geometry" />
        </mxCell>
        <mxCell id="x8Nqn1c0Ie5XCqJa0y-S-14" value="과목" style="whiteSpace=wrap;html=1;" parent="1" vertex="1">
          <mxGeometry x="207" y="208" width="100.5" height="41.5" as="geometry" />
        </mxCell>
        <mxCell id="x8Nqn1c0Ie5XCqJa0y-S-15" value="&lt;u&gt;사번&lt;/u&gt;" style="ellipse;whiteSpace=wrap;html=1;" parent="1" vertex="1">
          <mxGeometry x="-95" y="272.5" width="80" height="34" as="geometry" />
        </mxCell>
        <mxCell id="x8Nqn1c0Ie5XCqJa0y-S-16" value="이름" style="ellipse;whiteSpace=wrap;html=1;" parent="1" vertex="1">
          <mxGeometry x="-185" y="269.5" width="80" height="37" as="geometry" />
        </mxCell>
        <mxCell id="x8Nqn1c0Ie5XCqJa0y-S-17" value="&lt;u&gt;과목코드&lt;/u&gt;" style="ellipse;whiteSpace=wrap;html=1;" parent="1" vertex="1">
          <mxGeometry x="153" y="275.25" width="80" height="41" as="geometry" />
        </mxCell>
        <mxCell id="x8Nqn1c0Ie5XCqJa0y-S-18" value="과목명" style="ellipse;whiteSpace=wrap;html=1;" parent="1" vertex="1">
          <mxGeometry x="240" y="278" width="80" height="35.5" as="geometry" />
        </mxCell>
        <mxCell id="x8Nqn1c0Ie5XCqJa0y-S-19" value="&lt;b&gt;이진 N:M 관계&lt;/b&gt;" style="text;html=1;align=center;verticalAlign=middle;resizable=0;points=[];autosize=1;strokeColor=none;fillColor=none;" parent="1" vertex="1">
          <mxGeometry x="-89" y="165" width="95" height="26" as="geometry" />
        </mxCell>
        <mxCell id="x8Nqn1c0Ie5XCqJa0y-S-20" value="교수" style="shape=table;startSize=30;container=1;collapsible=1;childLayout=tableLayout;fixedRows=1;rowLines=0;fontStyle=1;align=center;resizeLast=1;html=1;fontFamily=Helvetica;fontSize=12;fontColor=default;labelBackgroundColor=default;" parent="1" vertex="1">
          <mxGeometry x="377" y="190" width="104" height="120" as="geometry">
            <mxRectangle x="404" y="-330" width="59" height="30" as="alternateBounds" />
          </mxGeometry>
        </mxCell>
        <mxCell id="x8Nqn1c0Ie5XCqJa0y-S-21" value="" style="shape=tableRow;horizontal=0;startSize=0;swimlaneHead=0;swimlaneBody=0;fillColor=none;collapsible=0;dropTarget=0;points=[[0,0.5],[1,0.5]];portConstraint=eastwest;top=0;left=0;right=0;bottom=1;fontFamily=Helvetica;fontSize=12;fontColor=default;labelBackgroundColor=default;" parent="x8Nqn1c0Ie5XCqJa0y-S-20" vertex="1">
          <mxGeometry y="30" width="104" height="30" as="geometry" />
        </mxCell>
        <mxCell id="x8Nqn1c0Ie5XCqJa0y-S-22" value="PK" style="shape=partialRectangle;connectable=0;fillColor=none;top=0;left=0;bottom=0;right=0;fontStyle=1;overflow=hidden;whiteSpace=wrap;html=1;fontFamily=Helvetica;fontSize=12;fontColor=default;labelBackgroundColor=default;" parent="x8Nqn1c0Ie5XCqJa0y-S-21" vertex="1">
          <mxGeometry width="30" height="30" as="geometry">
            <mxRectangle width="30" height="30" as="alternateBounds" />
          </mxGeometry>
        </mxCell>
        <mxCell id="x8Nqn1c0Ie5XCqJa0y-S-23" value="사번" style="shape=partialRectangle;connectable=0;fillColor=none;top=0;left=0;bottom=0;right=0;align=left;spacingLeft=6;fontStyle=5;overflow=hidden;whiteSpace=wrap;html=1;fontFamily=Helvetica;fontSize=12;fontColor=default;labelBackgroundColor=default;" parent="x8Nqn1c0Ie5XCqJa0y-S-21" vertex="1">
          <mxGeometry x="30" width="74" height="30" as="geometry">
            <mxRectangle width="74" height="30" as="alternateBounds" />
          </mxGeometry>
        </mxCell>
        <mxCell id="x8Nqn1c0Ie5XCqJa0y-S-24" value="" style="shape=tableRow;horizontal=0;startSize=0;swimlaneHead=0;swimlaneBody=0;fillColor=none;collapsible=0;dropTarget=0;points=[[0,0.5],[1,0.5]];portConstraint=eastwest;top=0;left=0;right=0;bottom=0;fontFamily=Helvetica;fontSize=12;fontColor=default;labelBackgroundColor=default;" parent="x8Nqn1c0Ie5XCqJa0y-S-20" vertex="1">
          <mxGeometry y="60" width="104" height="30" as="geometry" />
        </mxCell>
        <mxCell id="x8Nqn1c0Ie5XCqJa0y-S-25" value="" style="shape=partialRectangle;connectable=0;fillColor=none;top=0;left=0;bottom=0;right=0;editable=1;overflow=hidden;whiteSpace=wrap;html=1;fontFamily=Helvetica;fontSize=12;fontColor=default;labelBackgroundColor=default;" parent="x8Nqn1c0Ie5XCqJa0y-S-24" vertex="1">
          <mxGeometry width="30" height="30" as="geometry">
            <mxRectangle width="30" height="30" as="alternateBounds" />
          </mxGeometry>
        </mxCell>
        <mxCell id="x8Nqn1c0Ie5XCqJa0y-S-26" value="이름" style="shape=partialRectangle;connectable=0;fillColor=none;top=0;left=0;bottom=0;right=0;align=left;spacingLeft=6;overflow=hidden;whiteSpace=wrap;html=1;fontFamily=Helvetica;fontSize=12;fontColor=default;labelBackgroundColor=default;" parent="x8Nqn1c0Ie5XCqJa0y-S-24" vertex="1">
          <mxGeometry x="30" width="74" height="30" as="geometry">
            <mxRectangle width="74" height="30" as="alternateBounds" />
          </mxGeometry>
        </mxCell>
        <mxCell id="x8Nqn1c0Ie5XCqJa0y-S-27" value="" style="shape=tableRow;horizontal=0;startSize=0;swimlaneHead=0;swimlaneBody=0;fillColor=none;collapsible=0;dropTarget=0;points=[[0,0.5],[1,0.5]];portConstraint=eastwest;top=0;left=0;right=0;bottom=0;fontFamily=Helvetica;fontSize=12;fontColor=default;labelBackgroundColor=default;" parent="x8Nqn1c0Ie5XCqJa0y-S-20" vertex="1">
          <mxGeometry y="90" width="104" height="30" as="geometry" />
        </mxCell>
        <mxCell id="x8Nqn1c0Ie5XCqJa0y-S-28" value="" style="shape=partialRectangle;connectable=0;fillColor=none;top=0;left=0;bottom=0;right=0;editable=1;overflow=hidden;whiteSpace=wrap;html=1;fontFamily=Helvetica;fontSize=12;fontColor=default;labelBackgroundColor=default;" parent="x8Nqn1c0Ie5XCqJa0y-S-27" vertex="1">
          <mxGeometry width="30" height="30" as="geometry">
            <mxRectangle width="30" height="30" as="alternateBounds" />
          </mxGeometry>
        </mxCell>
        <mxCell id="x8Nqn1c0Ie5XCqJa0y-S-29" value="" style="shape=partialRectangle;connectable=0;fillColor=none;top=0;left=0;bottom=0;right=0;align=left;spacingLeft=6;overflow=hidden;whiteSpace=wrap;html=1;fontFamily=Helvetica;fontSize=12;fontColor=default;labelBackgroundColor=default;" parent="x8Nqn1c0Ie5XCqJa0y-S-27" vertex="1">
          <mxGeometry x="30" width="74" height="30" as="geometry">
            <mxRectangle width="74" height="30" as="alternateBounds" />
          </mxGeometry>
        </mxCell>
        <mxCell id="x8Nqn1c0Ie5XCqJa0y-S-30" value="과목" style="shape=table;startSize=30;container=1;collapsible=1;childLayout=tableLayout;fixedRows=1;rowLines=0;fontStyle=1;align=center;resizeLast=1;html=1;fontFamily=Helvetica;fontSize=12;fontColor=default;labelBackgroundColor=default;" parent="1" vertex="1">
          <mxGeometry x="514" y="190" width="104" height="120" as="geometry">
            <mxRectangle x="404" y="-330" width="59" height="30" as="alternateBounds" />
          </mxGeometry>
        </mxCell>
        <mxCell id="x8Nqn1c0Ie5XCqJa0y-S-31" value="" style="shape=tableRow;horizontal=0;startSize=0;swimlaneHead=0;swimlaneBody=0;fillColor=none;collapsible=0;dropTarget=0;points=[[0,0.5],[1,0.5]];portConstraint=eastwest;top=0;left=0;right=0;bottom=1;fontFamily=Helvetica;fontSize=12;fontColor=default;labelBackgroundColor=default;" parent="x8Nqn1c0Ie5XCqJa0y-S-30" vertex="1">
          <mxGeometry y="30" width="104" height="30" as="geometry" />
        </mxCell>
        <mxCell id="x8Nqn1c0Ie5XCqJa0y-S-32" value="PK" style="shape=partialRectangle;connectable=0;fillColor=none;top=0;left=0;bottom=0;right=0;fontStyle=1;overflow=hidden;whiteSpace=wrap;html=1;fontFamily=Helvetica;fontSize=12;fontColor=default;labelBackgroundColor=default;" parent="x8Nqn1c0Ie5XCqJa0y-S-31" vertex="1">
          <mxGeometry width="30" height="30" as="geometry">
            <mxRectangle width="30" height="30" as="alternateBounds" />
          </mxGeometry>
        </mxCell>
        <mxCell id="x8Nqn1c0Ie5XCqJa0y-S-33" value="과목코드" style="shape=partialRectangle;connectable=0;fillColor=none;top=0;left=0;bottom=0;right=0;align=left;spacingLeft=6;fontStyle=5;overflow=hidden;whiteSpace=wrap;html=1;fontFamily=Helvetica;fontSize=12;fontColor=default;labelBackgroundColor=default;" parent="x8Nqn1c0Ie5XCqJa0y-S-31" vertex="1">
          <mxGeometry x="30" width="74" height="30" as="geometry">
            <mxRectangle width="74" height="30" as="alternateBounds" />
          </mxGeometry>
        </mxCell>
        <mxCell id="x8Nqn1c0Ie5XCqJa0y-S-34" value="" style="shape=tableRow;horizontal=0;startSize=0;swimlaneHead=0;swimlaneBody=0;fillColor=none;collapsible=0;dropTarget=0;points=[[0,0.5],[1,0.5]];portConstraint=eastwest;top=0;left=0;right=0;bottom=0;fontFamily=Helvetica;fontSize=12;fontColor=default;labelBackgroundColor=default;" parent="x8Nqn1c0Ie5XCqJa0y-S-30" vertex="1">
          <mxGeometry y="60" width="104" height="30" as="geometry" />
        </mxCell>
        <mxCell id="x8Nqn1c0Ie5XCqJa0y-S-35" value="" style="shape=partialRectangle;connectable=0;fillColor=none;top=0;left=0;bottom=0;right=0;editable=1;overflow=hidden;whiteSpace=wrap;html=1;fontFamily=Helvetica;fontSize=12;fontColor=default;labelBackgroundColor=default;" parent="x8Nqn1c0Ie5XCqJa0y-S-34" vertex="1">
          <mxGeometry width="30" height="30" as="geometry">
            <mxRectangle width="30" height="30" as="alternateBounds" />
          </mxGeometry>
        </mxCell>
        <mxCell id="x8Nqn1c0Ie5XCqJa0y-S-36" value="과목명" style="shape=partialRectangle;connectable=0;fillColor=none;top=0;left=0;bottom=0;right=0;align=left;spacingLeft=6;overflow=hidden;whiteSpace=wrap;html=1;fontFamily=Helvetica;fontSize=12;fontColor=default;labelBackgroundColor=default;" parent="x8Nqn1c0Ie5XCqJa0y-S-34" vertex="1">
          <mxGeometry x="30" width="74" height="30" as="geometry">
            <mxRectangle width="74" height="30" as="alternateBounds" />
          </mxGeometry>
        </mxCell>
        <mxCell id="x8Nqn1c0Ie5XCqJa0y-S-37" value="" style="shape=tableRow;horizontal=0;startSize=0;swimlaneHead=0;swimlaneBody=0;fillColor=none;collapsible=0;dropTarget=0;points=[[0,0.5],[1,0.5]];portConstraint=eastwest;top=0;left=0;right=0;bottom=0;fontFamily=Helvetica;fontSize=12;fontColor=default;labelBackgroundColor=default;" parent="x8Nqn1c0Ie5XCqJa0y-S-30" vertex="1">
          <mxGeometry y="90" width="104" height="30" as="geometry" />
        </mxCell>
        <mxCell id="x8Nqn1c0Ie5XCqJa0y-S-38" value="" style="shape=partialRectangle;connectable=0;fillColor=none;top=0;left=0;bottom=0;right=0;editable=1;overflow=hidden;whiteSpace=wrap;html=1;fontFamily=Helvetica;fontSize=12;fontColor=default;labelBackgroundColor=default;" parent="x8Nqn1c0Ie5XCqJa0y-S-37" vertex="1">
          <mxGeometry width="30" height="30" as="geometry">
            <mxRectangle width="30" height="30" as="alternateBounds" />
          </mxGeometry>
        </mxCell>
        <mxCell id="x8Nqn1c0Ie5XCqJa0y-S-39" value="" style="shape=partialRectangle;connectable=0;fillColor=none;top=0;left=0;bottom=0;right=0;align=left;spacingLeft=6;overflow=hidden;whiteSpace=wrap;html=1;fontFamily=Helvetica;fontSize=12;fontColor=default;labelBackgroundColor=default;" parent="x8Nqn1c0Ie5XCqJa0y-S-37" vertex="1">
          <mxGeometry x="30" width="74" height="30" as="geometry">
            <mxRectangle width="74" height="30" as="alternateBounds" />
          </mxGeometry>
        </mxCell>
        <mxCell id="x8Nqn1c0Ie5XCqJa0y-S-40" value="수업" style="shape=table;startSize=30;container=1;collapsible=1;childLayout=tableLayout;fixedRows=1;rowLines=0;fontStyle=1;align=center;resizeLast=1;html=1;fontFamily=Helvetica;fontSize=12;fontColor=default;labelBackgroundColor=default;" parent="1" vertex="1">
          <mxGeometry x="437" y="332" width="104" height="118.7011213631468" as="geometry">
            <mxRectangle x="404" y="-330" width="59" height="30" as="alternateBounds" />
          </mxGeometry>
        </mxCell>
        <mxCell id="x8Nqn1c0Ie5XCqJa0y-S-41" value="" style="shape=tableRow;horizontal=0;startSize=0;swimlaneHead=0;swimlaneBody=0;fillColor=none;collapsible=0;dropTarget=0;points=[[0,0.5],[1,0.5]];portConstraint=eastwest;top=0;left=0;right=0;bottom=1;fontFamily=Helvetica;fontSize=12;fontColor=default;labelBackgroundColor=default;" parent="x8Nqn1c0Ie5XCqJa0y-S-40" vertex="1">
          <mxGeometry y="30" width="104" height="29" as="geometry" />
        </mxCell>
        <mxCell id="x8Nqn1c0Ie5XCqJa0y-S-42" value="FK" style="shape=partialRectangle;connectable=0;fillColor=none;top=0;left=0;bottom=0;right=0;fontStyle=1;overflow=hidden;whiteSpace=wrap;html=1;fontFamily=Helvetica;fontSize=12;fontColor=default;labelBackgroundColor=default;" parent="x8Nqn1c0Ie5XCqJa0y-S-41" vertex="1">
          <mxGeometry width="30" height="29" as="geometry">
            <mxRectangle width="30" height="29" as="alternateBounds" />
          </mxGeometry>
        </mxCell>
        <mxCell id="x8Nqn1c0Ie5XCqJa0y-S-43" value="사번" style="shape=partialRectangle;connectable=0;fillColor=none;top=0;left=0;bottom=0;right=0;align=left;spacingLeft=6;fontStyle=5;overflow=hidden;whiteSpace=wrap;html=1;fontFamily=Helvetica;fontSize=12;fontColor=default;labelBackgroundColor=default;" parent="x8Nqn1c0Ie5XCqJa0y-S-41" vertex="1">
          <mxGeometry x="30" width="74" height="29" as="geometry">
            <mxRectangle width="74" height="29" as="alternateBounds" />
          </mxGeometry>
        </mxCell>
        <mxCell id="x8Nqn1c0Ie5XCqJa0y-S-44" value="" style="shape=tableRow;horizontal=0;startSize=0;swimlaneHead=0;swimlaneBody=0;fillColor=none;collapsible=0;dropTarget=0;points=[[0,0.5],[1,0.5]];portConstraint=eastwest;top=0;left=0;right=0;bottom=0;fontFamily=Helvetica;fontSize=12;fontColor=default;labelBackgroundColor=default;" parent="x8Nqn1c0Ie5XCqJa0y-S-40" vertex="1">
          <mxGeometry y="59" width="104" height="30" as="geometry" />
        </mxCell>
        <mxCell id="x8Nqn1c0Ie5XCqJa0y-S-45" value="FK" style="shape=partialRectangle;connectable=0;fillColor=none;top=0;left=0;bottom=0;right=0;editable=1;overflow=hidden;whiteSpace=wrap;html=1;fontFamily=Helvetica;fontSize=12;fontColor=default;labelBackgroundColor=default;fontStyle=1" parent="x8Nqn1c0Ie5XCqJa0y-S-44" vertex="1">
          <mxGeometry width="30" height="30" as="geometry">
            <mxRectangle width="30" height="30" as="alternateBounds" />
          </mxGeometry>
        </mxCell>
        <mxCell id="x8Nqn1c0Ie5XCqJa0y-S-46" value="&lt;b&gt;&lt;u&gt;과목코드&lt;/u&gt;&lt;/b&gt;" style="shape=partialRectangle;connectable=0;fillColor=none;top=0;left=0;bottom=0;right=0;align=left;spacingLeft=6;overflow=hidden;whiteSpace=wrap;html=1;fontFamily=Helvetica;fontSize=12;fontColor=default;labelBackgroundColor=default;" parent="x8Nqn1c0Ie5XCqJa0y-S-44" vertex="1">
          <mxGeometry x="30" width="74" height="30" as="geometry">
            <mxRectangle width="74" height="30" as="alternateBounds" />
          </mxGeometry>
        </mxCell>
        <mxCell id="x8Nqn1c0Ie5XCqJa0y-S-47" value="" style="shape=tableRow;horizontal=0;startSize=0;swimlaneHead=0;swimlaneBody=0;fillColor=none;collapsible=0;dropTarget=0;points=[[0,0.5],[1,0.5]];portConstraint=eastwest;top=0;left=0;right=0;bottom=0;fontFamily=Helvetica;fontSize=12;fontColor=default;labelBackgroundColor=default;" parent="x8Nqn1c0Ie5XCqJa0y-S-40" vertex="1">
          <mxGeometry y="89" width="104" height="30" as="geometry" />
        </mxCell>
        <mxCell id="x8Nqn1c0Ie5XCqJa0y-S-48" value="" style="shape=partialRectangle;connectable=0;fillColor=none;top=0;left=0;bottom=0;right=0;editable=1;overflow=hidden;whiteSpace=wrap;html=1;fontFamily=Helvetica;fontSize=12;fontColor=default;labelBackgroundColor=default;" parent="x8Nqn1c0Ie5XCqJa0y-S-47" vertex="1">
          <mxGeometry width="30" height="30" as="geometry">
            <mxRectangle width="30" height="30" as="alternateBounds" />
          </mxGeometry>
        </mxCell>
        <mxCell id="x8Nqn1c0Ie5XCqJa0y-S-49" value="" style="shape=partialRectangle;connectable=0;fillColor=none;top=0;left=0;bottom=0;right=0;align=left;spacingLeft=6;overflow=hidden;whiteSpace=wrap;html=1;fontFamily=Helvetica;fontSize=12;fontColor=default;labelBackgroundColor=default;" parent="x8Nqn1c0Ie5XCqJa0y-S-47" vertex="1">
          <mxGeometry x="30" width="74" height="30" as="geometry">
            <mxRectangle width="74" height="30" as="alternateBounds" />
          </mxGeometry>
        </mxCell>
        <mxCell id="x8Nqn1c0Ie5XCqJa0y-S-54" value="N:M 관계의 경우 양 쪽 모두 다(many)수를 가짐으로 관계에서 새로운 릴레이션을 생성해야 함&lt;div&gt;교차 릴레이션(교차 테이블)&lt;/div&gt;" style="text;html=1;align=center;verticalAlign=middle;resizable=0;points=[];autosize=1;strokeColor=none;fillColor=none;" parent="1" vertex="1">
          <mxGeometry x="-111" y="355" width="513" height="41" as="geometry" />
        </mxCell>
        <mxCell id="x8Nqn1c0Ie5XCqJa0y-S-59" value="1" style="edgeStyle=orthogonalEdgeStyle;rounded=0;orthogonalLoop=1;jettySize=auto;html=1;endArrow=none;endFill=0;" parent="1" source="x8Nqn1c0Ie5XCqJa0y-S-55" edge="1">
          <mxGeometry x="0.0768" y="8" relative="1" as="geometry">
            <mxPoint x="27.034482758620697" y="543.0127275418083" as="targetPoint" />
            <mxPoint as="offset" />
          </mxGeometry>
        </mxCell>
        <mxCell id="x8Nqn1c0Ie5XCqJa0y-S-65" value="" style="edgeStyle=orthogonalEdgeStyle;rounded=0;orthogonalLoop=1;jettySize=auto;html=1;endArrow=none;endFill=0;" parent="1" source="x8Nqn1c0Ie5XCqJa0y-S-55" target="x8Nqn1c0Ie5XCqJa0y-S-64" edge="1">
          <mxGeometry relative="1" as="geometry" />
        </mxCell>
        <mxCell id="x8Nqn1c0Ie5XCqJa0y-S-68" value="" style="edgeStyle=orthogonalEdgeStyle;rounded=0;orthogonalLoop=1;jettySize=auto;html=1;endArrow=none;endFill=0;" parent="1" source="x8Nqn1c0Ie5XCqJa0y-S-55" target="x8Nqn1c0Ie5XCqJa0y-S-67" edge="1">
          <mxGeometry relative="1" as="geometry" />
        </mxCell>
        <mxCell id="x8Nqn1c0Ie5XCqJa0y-S-55" value="사원" style="rounded=0;whiteSpace=wrap;html=1;" parent="1" vertex="1">
          <mxGeometry x="-21.5" y="476" width="97" height="36" as="geometry" />
        </mxCell>
        <mxCell id="x8Nqn1c0Ie5XCqJa0y-S-60" value="N" style="edgeStyle=orthogonalEdgeStyle;rounded=0;orthogonalLoop=1;jettySize=auto;html=1;endArrow=none;endFill=0;" parent="1" edge="1">
          <mxGeometry x="0.0325" y="-8" relative="1" as="geometry">
            <mxPoint x="27.034482758620697" y="622.01" as="sourcePoint" />
            <mxPoint x="27.034482758620697" y="590.9972724581914" as="targetPoint" />
            <mxPoint as="offset" />
          </mxGeometry>
        </mxCell>
        <mxCell id="x8Nqn1c0Ie5XCqJa0y-S-62" value="부양" style="shape=rhombus;double=1;perimeter=rhombusPerimeter;whiteSpace=wrap;html=1;align=center;" parent="1" vertex="1">
          <mxGeometry x="-19" y="545" width="92" height="44" as="geometry" />
        </mxCell>
        <mxCell id="x8Nqn1c0Ie5XCqJa0y-S-70" value="" style="edgeStyle=orthogonalEdgeStyle;rounded=0;orthogonalLoop=1;jettySize=auto;html=1;strokeColor=default;align=center;verticalAlign=middle;fontFamily=Helvetica;fontSize=11;fontColor=default;labelBackgroundColor=default;endArrow=none;endFill=0;" parent="1" source="x8Nqn1c0Ie5XCqJa0y-S-63" target="x8Nqn1c0Ie5XCqJa0y-S-69" edge="1">
          <mxGeometry relative="1" as="geometry" />
        </mxCell>
        <mxCell id="x8Nqn1c0Ie5XCqJa0y-S-63" value="가족" style="shape=ext;margin=3;double=1;whiteSpace=wrap;html=1;align=center;" parent="1" vertex="1">
          <mxGeometry x="-21.5" y="622.01" width="100" height="40" as="geometry" />
        </mxCell>
        <mxCell id="x8Nqn1c0Ie5XCqJa0y-S-64" value="&lt;u&gt;사번&lt;/u&gt;" style="ellipse;whiteSpace=wrap;html=1;rounded=0;" parent="1" vertex="1">
          <mxGeometry x="-139" y="501" width="80" height="32" as="geometry" />
        </mxCell>
        <mxCell id="x8Nqn1c0Ie5XCqJa0y-S-67" value="이름" style="ellipse;whiteSpace=wrap;html=1;rounded=0;" parent="1" vertex="1">
          <mxGeometry x="-139" y="450.7" width="80" height="34" as="geometry" />
        </mxCell>
        <mxCell id="x8Nqn1c0Ie5XCqJa0y-S-69" value="이름" style="ellipse;whiteSpace=wrap;html=1;" parent="1" vertex="1">
          <mxGeometry x="-135" y="622.01" width="80" height="40.01" as="geometry" />
        </mxCell>
        <mxCell id="x8Nqn1c0Ie5XCqJa0y-S-71" value="&lt;b&gt;약한 개체 타입 매핑&lt;/b&gt;" style="text;html=1;align=center;verticalAlign=middle;resizable=0;points=[];autosize=1;strokeColor=none;fillColor=none;fontFamily=Helvetica;fontSize=11;fontColor=default;labelBackgroundColor=default;" parent="1" vertex="1">
          <mxGeometry x="-118" y="409" width="115" height="25" as="geometry" />
        </mxCell>
        <mxCell id="x8Nqn1c0Ie5XCqJa0y-S-72" value="사원" style="shape=table;startSize=30;container=1;collapsible=1;childLayout=tableLayout;fixedRows=1;rowLines=0;fontStyle=1;align=center;resizeLast=1;html=1;fontFamily=Helvetica;fontSize=12;fontColor=default;labelBackgroundColor=default;" parent="1" vertex="1">
          <mxGeometry x="163" y="489" width="104" height="120" as="geometry">
            <mxRectangle x="404" y="-330" width="59" height="30" as="alternateBounds" />
          </mxGeometry>
        </mxCell>
        <mxCell id="x8Nqn1c0Ie5XCqJa0y-S-73" value="" style="shape=tableRow;horizontal=0;startSize=0;swimlaneHead=0;swimlaneBody=0;fillColor=none;collapsible=0;dropTarget=0;points=[[0,0.5],[1,0.5]];portConstraint=eastwest;top=0;left=0;right=0;bottom=1;fontFamily=Helvetica;fontSize=12;fontColor=default;labelBackgroundColor=default;" parent="x8Nqn1c0Ie5XCqJa0y-S-72" vertex="1">
          <mxGeometry y="30" width="104" height="30" as="geometry" />
        </mxCell>
        <mxCell id="x8Nqn1c0Ie5XCqJa0y-S-74" value="PK" style="shape=partialRectangle;connectable=0;fillColor=none;top=0;left=0;bottom=0;right=0;fontStyle=1;overflow=hidden;whiteSpace=wrap;html=1;fontFamily=Helvetica;fontSize=12;fontColor=default;labelBackgroundColor=default;" parent="x8Nqn1c0Ie5XCqJa0y-S-73" vertex="1">
          <mxGeometry width="30" height="30" as="geometry">
            <mxRectangle width="30" height="30" as="alternateBounds" />
          </mxGeometry>
        </mxCell>
        <mxCell id="x8Nqn1c0Ie5XCqJa0y-S-75" value="사번" style="shape=partialRectangle;connectable=0;fillColor=none;top=0;left=0;bottom=0;right=0;align=left;spacingLeft=6;fontStyle=5;overflow=hidden;whiteSpace=wrap;html=1;fontFamily=Helvetica;fontSize=12;fontColor=default;labelBackgroundColor=default;" parent="x8Nqn1c0Ie5XCqJa0y-S-73" vertex="1">
          <mxGeometry x="30" width="74" height="30" as="geometry">
            <mxRectangle width="74" height="30" as="alternateBounds" />
          </mxGeometry>
        </mxCell>
        <mxCell id="x8Nqn1c0Ie5XCqJa0y-S-76" value="" style="shape=tableRow;horizontal=0;startSize=0;swimlaneHead=0;swimlaneBody=0;fillColor=none;collapsible=0;dropTarget=0;points=[[0,0.5],[1,0.5]];portConstraint=eastwest;top=0;left=0;right=0;bottom=0;fontFamily=Helvetica;fontSize=12;fontColor=default;labelBackgroundColor=default;" parent="x8Nqn1c0Ie5XCqJa0y-S-72" vertex="1">
          <mxGeometry y="60" width="104" height="30" as="geometry" />
        </mxCell>
        <mxCell id="x8Nqn1c0Ie5XCqJa0y-S-77" value="" style="shape=partialRectangle;connectable=0;fillColor=none;top=0;left=0;bottom=0;right=0;editable=1;overflow=hidden;whiteSpace=wrap;html=1;fontFamily=Helvetica;fontSize=12;fontColor=default;labelBackgroundColor=default;" parent="x8Nqn1c0Ie5XCqJa0y-S-76" vertex="1">
          <mxGeometry width="30" height="30" as="geometry">
            <mxRectangle width="30" height="30" as="alternateBounds" />
          </mxGeometry>
        </mxCell>
        <mxCell id="x8Nqn1c0Ie5XCqJa0y-S-78" value="이름" style="shape=partialRectangle;connectable=0;fillColor=none;top=0;left=0;bottom=0;right=0;align=left;spacingLeft=6;overflow=hidden;whiteSpace=wrap;html=1;fontFamily=Helvetica;fontSize=12;fontColor=default;labelBackgroundColor=default;" parent="x8Nqn1c0Ie5XCqJa0y-S-76" vertex="1">
          <mxGeometry x="30" width="74" height="30" as="geometry">
            <mxRectangle width="74" height="30" as="alternateBounds" />
          </mxGeometry>
        </mxCell>
        <mxCell id="x8Nqn1c0Ie5XCqJa0y-S-79" value="" style="shape=tableRow;horizontal=0;startSize=0;swimlaneHead=0;swimlaneBody=0;fillColor=none;collapsible=0;dropTarget=0;points=[[0,0.5],[1,0.5]];portConstraint=eastwest;top=0;left=0;right=0;bottom=0;fontFamily=Helvetica;fontSize=12;fontColor=default;labelBackgroundColor=default;" parent="x8Nqn1c0Ie5XCqJa0y-S-72" vertex="1">
          <mxGeometry y="90" width="104" height="30" as="geometry" />
        </mxCell>
        <mxCell id="x8Nqn1c0Ie5XCqJa0y-S-80" value="" style="shape=partialRectangle;connectable=0;fillColor=none;top=0;left=0;bottom=0;right=0;editable=1;overflow=hidden;whiteSpace=wrap;html=1;fontFamily=Helvetica;fontSize=12;fontColor=default;labelBackgroundColor=default;" parent="x8Nqn1c0Ie5XCqJa0y-S-79" vertex="1">
          <mxGeometry width="30" height="30" as="geometry">
            <mxRectangle width="30" height="30" as="alternateBounds" />
          </mxGeometry>
        </mxCell>
        <mxCell id="x8Nqn1c0Ie5XCqJa0y-S-81" value="" style="shape=partialRectangle;connectable=0;fillColor=none;top=0;left=0;bottom=0;right=0;align=left;spacingLeft=6;overflow=hidden;whiteSpace=wrap;html=1;fontFamily=Helvetica;fontSize=12;fontColor=default;labelBackgroundColor=default;" parent="x8Nqn1c0Ie5XCqJa0y-S-79" vertex="1">
          <mxGeometry x="30" width="74" height="30" as="geometry">
            <mxRectangle width="74" height="30" as="alternateBounds" />
          </mxGeometry>
        </mxCell>
        <mxCell id="x8Nqn1c0Ie5XCqJa0y-S-82" value="가족" style="shape=table;startSize=30;container=1;collapsible=1;childLayout=tableLayout;fixedRows=1;rowLines=0;fontStyle=1;align=center;resizeLast=1;html=1;fontFamily=Helvetica;fontSize=12;fontColor=default;labelBackgroundColor=default;" parent="1" vertex="1">
          <mxGeometry x="292" y="488" width="104" height="125.51713614628238" as="geometry">
            <mxRectangle x="404" y="-330" width="59" height="30" as="alternateBounds" />
          </mxGeometry>
        </mxCell>
        <mxCell id="x8Nqn1c0Ie5XCqJa0y-S-83" value="" style="shape=tableRow;horizontal=0;startSize=0;swimlaneHead=0;swimlaneBody=0;fillColor=none;collapsible=0;dropTarget=0;points=[[0,0.5],[1,0.5]];portConstraint=eastwest;top=0;left=0;right=0;bottom=1;fontFamily=Helvetica;fontSize=12;fontColor=default;labelBackgroundColor=default;" parent="x8Nqn1c0Ie5XCqJa0y-S-82" vertex="1">
          <mxGeometry y="30" width="104" height="35" as="geometry" />
        </mxCell>
        <mxCell id="x8Nqn1c0Ie5XCqJa0y-S-84" value="PK" style="shape=partialRectangle;connectable=0;fillColor=none;top=0;left=0;bottom=0;right=0;fontStyle=1;overflow=hidden;whiteSpace=wrap;html=1;fontFamily=Helvetica;fontSize=12;fontColor=default;labelBackgroundColor=default;" parent="x8Nqn1c0Ie5XCqJa0y-S-83" vertex="1">
          <mxGeometry width="30" height="35" as="geometry">
            <mxRectangle width="30" height="35" as="alternateBounds" />
          </mxGeometry>
        </mxCell>
        <mxCell id="x8Nqn1c0Ie5XCqJa0y-S-85" value="사번" style="shape=partialRectangle;connectable=0;fillColor=none;top=0;left=0;bottom=0;right=0;align=left;spacingLeft=6;fontStyle=5;overflow=hidden;whiteSpace=wrap;html=1;fontFamily=Helvetica;fontSize=12;fontColor=default;labelBackgroundColor=default;" parent="x8Nqn1c0Ie5XCqJa0y-S-83" vertex="1">
          <mxGeometry x="30" width="74" height="35" as="geometry">
            <mxRectangle width="74" height="35" as="alternateBounds" />
          </mxGeometry>
        </mxCell>
        <mxCell id="x8Nqn1c0Ie5XCqJa0y-S-86" value="" style="shape=tableRow;horizontal=0;startSize=0;swimlaneHead=0;swimlaneBody=0;fillColor=none;collapsible=0;dropTarget=0;points=[[0,0.5],[1,0.5]];portConstraint=eastwest;top=0;left=0;right=0;bottom=0;fontFamily=Helvetica;fontSize=12;fontColor=default;labelBackgroundColor=default;" parent="x8Nqn1c0Ie5XCqJa0y-S-82" vertex="1">
          <mxGeometry y="65" width="104" height="30" as="geometry" />
        </mxCell>
        <mxCell id="x8Nqn1c0Ie5XCqJa0y-S-87" value="PK" style="shape=partialRectangle;connectable=0;fillColor=none;top=0;left=0;bottom=0;right=0;editable=1;overflow=hidden;whiteSpace=wrap;html=1;fontFamily=Helvetica;fontSize=12;fontColor=default;labelBackgroundColor=default;" parent="x8Nqn1c0Ie5XCqJa0y-S-86" vertex="1">
          <mxGeometry width="30" height="30" as="geometry">
            <mxRectangle width="30" height="30" as="alternateBounds" />
          </mxGeometry>
        </mxCell>
        <mxCell id="x8Nqn1c0Ie5XCqJa0y-S-88" value="&lt;u&gt;이름&lt;/u&gt;" style="shape=partialRectangle;connectable=0;fillColor=none;top=0;left=0;bottom=0;right=0;align=left;spacingLeft=6;overflow=hidden;whiteSpace=wrap;html=1;fontFamily=Helvetica;fontSize=12;fontColor=default;labelBackgroundColor=default;" parent="x8Nqn1c0Ie5XCqJa0y-S-86" vertex="1">
          <mxGeometry x="30" width="74" height="30" as="geometry">
            <mxRectangle width="74" height="30" as="alternateBounds" />
          </mxGeometry>
        </mxCell>
        <mxCell id="x8Nqn1c0Ie5XCqJa0y-S-89" value="" style="shape=tableRow;horizontal=0;startSize=0;swimlaneHead=0;swimlaneBody=0;fillColor=none;collapsible=0;dropTarget=0;points=[[0,0.5],[1,0.5]];portConstraint=eastwest;top=0;left=0;right=0;bottom=0;fontFamily=Helvetica;fontSize=12;fontColor=default;labelBackgroundColor=default;" parent="x8Nqn1c0Ie5XCqJa0y-S-82" vertex="1">
          <mxGeometry y="95" width="104" height="30" as="geometry" />
        </mxCell>
        <mxCell id="x8Nqn1c0Ie5XCqJa0y-S-90" value="" style="shape=partialRectangle;connectable=0;fillColor=none;top=0;left=0;bottom=0;right=0;editable=1;overflow=hidden;whiteSpace=wrap;html=1;fontFamily=Helvetica;fontSize=12;fontColor=default;labelBackgroundColor=default;" parent="x8Nqn1c0Ie5XCqJa0y-S-89" vertex="1">
          <mxGeometry width="30" height="30" as="geometry">
            <mxRectangle width="30" height="30" as="alternateBounds" />
          </mxGeometry>
        </mxCell>
        <mxCell id="x8Nqn1c0Ie5XCqJa0y-S-91" value="" style="shape=partialRectangle;connectable=0;fillColor=none;top=0;left=0;bottom=0;right=0;align=left;spacingLeft=6;overflow=hidden;whiteSpace=wrap;html=1;fontFamily=Helvetica;fontSize=12;fontColor=default;labelBackgroundColor=default;" parent="x8Nqn1c0Ie5XCqJa0y-S-89" vertex="1">
          <mxGeometry x="30" width="74" height="30" as="geometry">
            <mxRectangle width="74" height="30" as="alternateBounds" />
          </mxGeometry>
        </mxCell>
        <mxCell id="x8Nqn1c0Ie5XCqJa0y-S-92" value="가족 엔티티는 사원 엔티티에 종속된 약한 개체&lt;div&gt;가족 개체의 기본 키는 사번 속성의 기본키를 외래키로 포함&lt;/div&gt;&lt;div&gt;식별 관계(Identifying Relation)&lt;/div&gt;" style="text;html=1;align=left;verticalAlign=middle;resizable=0;points=[];autosize=1;strokeColor=none;fillColor=none;fontFamily=Helvetica;fontSize=11;fontColor=default;labelBackgroundColor=default;" parent="1" vertex="1">
          <mxGeometry x="96" y="416" width="306" height="52" as="geometry" />
        </mxCell>
      </root>
    </mxGraphModel>
  </diagram>
  <diagram id="hL370SWDf5vS0ZMFOKyh" name="서점연습">
    <mxGraphModel dx="1265" dy="1228" grid="0" gridSize="10" guides="1" tooltips="1" connect="1" arrows="1" fold="1" page="0" pageScale="1" pageWidth="827" pageHeight="1169" math="0" shadow="0">
      <root>
        <mxCell id="0" />
        <mxCell id="1" parent="0" />
        <mxCell id="cuonqmeyS63wB0P_Q7tT-1" value="&lt;span style=&quot;color: rgb(29, 28, 29); font-family: Monaco, Menlo, Consolas, &amp;quot;Courier New&amp;quot;, monospace; font-size: 12px; font-variant-ligatures: none; white-space-collapse: preserve; background-color: rgba(29, 28, 29, 0.04);&quot;&gt;[요구사항]&lt;br&gt;&lt;br&gt;마당서점은 출판사에서 도서를 공급받아 판매한다. &lt;/span&gt;&lt;div&gt;&lt;span style=&quot;color: rgb(29, 28, 29); font-family: Monaco, Menlo, Consolas, &amp;quot;Courier New&amp;quot;, monospace; font-size: 12px; font-variant-ligatures: none; white-space-collapse: preserve; background-color: rgba(29, 28, 29, 0.04);&quot;&gt;판매 내역은 매일 기록으로 남기며, 고객서비스와 매출 관리에 활용한다.&lt;/span&gt;&lt;/div&gt;&lt;div&gt;&lt;span style=&quot;color: rgb(29, 28, 29); font-family: Monaco, Menlo, Consolas, &amp;quot;Courier New&amp;quot;, monospace; font-size: 12px; font-variant-ligatures: none; white-space-collapse: preserve; background-color: rgba(29, 28, 29, 0.04);&quot;&gt;마당서점은 판매하는 도서의 도서번호, 도서 이름, 출판사이름, 도서단가를 주요 정보로 보유하고 있다..&lt;/span&gt;&lt;/div&gt;&lt;div&gt;&lt;span style=&quot;color: rgb(29, 28, 29); font-family: Monaco, Menlo, Consolas, &amp;quot;Courier New&amp;quot;, monospace; font-size: 12px; font-variant-ligatures: none; white-space-collapse: preserve; background-color: rgba(29, 28, 29, 0.04);&quot;&gt;또한 구매한 도서들을 납품한 출판사와 출판사 담당자이름 전화번호를 관리한다.&lt;/span&gt;&lt;/div&gt;&lt;div&gt;&lt;span style=&quot;color: rgb(29, 28, 29); font-family: Monaco, Menlo, Consolas, &amp;quot;Courier New&amp;quot;, monospace; font-size: 12px; font-variant-ligatures: none; white-space-collapse: preserve; background-color: rgba(29, 28, 29, 0.04);&quot;&gt;또한 책이 판매될 때마다 고객들의 고객이름, 주소, 전화번호를 기록하고 있다. &lt;/span&gt;&lt;/div&gt;&lt;div&gt;&lt;span style=&quot;color: rgb(29, 28, 29); font-family: Monaco, Menlo, Consolas, &amp;quot;Courier New&amp;quot;, monospace; font-size: 12px; font-variant-ligatures: none; white-space-collapse: preserve; background-color: rgba(29, 28, 29, 0.04);&quot;&gt;고객에게 판매한 도서는 판매한날, 고객별 주문금액을 추가로 관리해야 하며 고객들은 여러 번에 걸쳐 다양한 도서를 구매할 수 있다.&lt;/span&gt;&lt;/div&gt;" style="text;strokeColor=none;fillColor=none;html=1;align=left;verticalAlign=middle;whiteSpace=wrap;rounded=0;fontSize=16;" vertex="1" parent="1">
          <mxGeometry x="-124" y="14" width="489" height="30" as="geometry" />
        </mxCell>
        <mxCell id="cuonqmeyS63wB0P_Q7tT-37" style="edgeStyle=none;curved=1;rounded=0;orthogonalLoop=1;jettySize=auto;html=1;exitX=0.5;exitY=1;exitDx=0;exitDy=0;strokeColor=default;align=center;verticalAlign=middle;fontFamily=Helvetica;fontSize=12;fontColor=default;labelBackgroundColor=default;startSize=8;endArrow=none;endFill=0;endSize=8;" edge="1" parent="1" source="cuonqmeyS63wB0P_Q7tT-2" target="cuonqmeyS63wB0P_Q7tT-36">
          <mxGeometry relative="1" as="geometry" />
        </mxCell>
        <mxCell id="cuonqmeyS63wB0P_Q7tT-2" value="도서" style="rounded=0;whiteSpace=wrap;html=1;" vertex="1" parent="1">
          <mxGeometry x="-74" y="332" width="84" height="44" as="geometry" />
        </mxCell>
        <mxCell id="cuonqmeyS63wB0P_Q7tT-3" value="출판사" style="rounded=0;whiteSpace=wrap;html=1;" vertex="1" parent="1">
          <mxGeometry x="260" y="340" width="78" height="39" as="geometry" />
        </mxCell>
        <mxCell id="cuonqmeyS63wB0P_Q7tT-4" value="고객" style="rounded=0;whiteSpace=wrap;html=1;" vertex="1" parent="1">
          <mxGeometry x="-65" y="620" width="82" height="40" as="geometry" />
        </mxCell>
        <mxCell id="cuonqmeyS63wB0P_Q7tT-5" value="도서번호" style="ellipse;whiteSpace=wrap;html=1;" vertex="1" parent="1">
          <mxGeometry x="47" y="243" width="63" height="40" as="geometry" />
        </mxCell>
        <mxCell id="cuonqmeyS63wB0P_Q7tT-17" style="edgeStyle=none;curved=1;rounded=0;orthogonalLoop=1;jettySize=auto;html=1;exitX=0;exitY=0.5;exitDx=0;exitDy=0;entryX=1;entryY=0;entryDx=0;entryDy=0;fontSize=12;startSize=8;endSize=8;endArrow=none;endFill=0;" edge="1" parent="1" source="cuonqmeyS63wB0P_Q7tT-6" target="cuonqmeyS63wB0P_Q7tT-2">
          <mxGeometry relative="1" as="geometry" />
        </mxCell>
        <mxCell id="cuonqmeyS63wB0P_Q7tT-6" value="도서 이름" style="ellipse;whiteSpace=wrap;html=1;" vertex="1" parent="1">
          <mxGeometry x="45" y="300" width="72" height="43" as="geometry" />
        </mxCell>
        <mxCell id="cuonqmeyS63wB0P_Q7tT-18" style="edgeStyle=none;curved=1;rounded=0;orthogonalLoop=1;jettySize=auto;html=1;exitX=0;exitY=0.5;exitDx=0;exitDy=0;entryX=1;entryY=1;entryDx=0;entryDy=0;fontSize=12;startSize=8;endSize=8;endArrow=none;endFill=0;" edge="1" parent="1" source="cuonqmeyS63wB0P_Q7tT-7" target="cuonqmeyS63wB0P_Q7tT-2">
          <mxGeometry relative="1" as="geometry" />
        </mxCell>
        <mxCell id="cuonqmeyS63wB0P_Q7tT-7" value="출판사 이름" style="ellipse;whiteSpace=wrap;html=1;" vertex="1" parent="1">
          <mxGeometry x="43.5" y="368" width="70" height="43" as="geometry" />
        </mxCell>
        <mxCell id="cuonqmeyS63wB0P_Q7tT-19" style="edgeStyle=none;curved=1;rounded=0;orthogonalLoop=1;jettySize=auto;html=1;exitX=0;exitY=0.5;exitDx=0;exitDy=0;entryX=0.75;entryY=1;entryDx=0;entryDy=0;fontSize=12;startSize=8;endSize=8;endArrow=none;endFill=0;" edge="1" parent="1" source="cuonqmeyS63wB0P_Q7tT-8" target="cuonqmeyS63wB0P_Q7tT-2">
          <mxGeometry relative="1" as="geometry" />
        </mxCell>
        <mxCell id="cuonqmeyS63wB0P_Q7tT-8" value="도서단가" style="ellipse;whiteSpace=wrap;html=1;" vertex="1" parent="1">
          <mxGeometry x="45" y="422" width="66" height="47" as="geometry" />
        </mxCell>
        <mxCell id="cuonqmeyS63wB0P_Q7tT-26" style="edgeStyle=none;curved=1;rounded=0;orthogonalLoop=1;jettySize=auto;html=1;exitX=0;exitY=0.5;exitDx=0;exitDy=0;entryX=0.75;entryY=0;entryDx=0;entryDy=0;strokeColor=default;align=center;verticalAlign=middle;fontFamily=Helvetica;fontSize=12;fontColor=default;labelBackgroundColor=default;startSize=8;endArrow=none;endFill=0;endSize=8;" edge="1" parent="1" source="cuonqmeyS63wB0P_Q7tT-10" target="cuonqmeyS63wB0P_Q7tT-3">
          <mxGeometry relative="1" as="geometry" />
        </mxCell>
        <mxCell id="cuonqmeyS63wB0P_Q7tT-10" value="출판사번호" style="ellipse;whiteSpace=wrap;html=1;" vertex="1" parent="1">
          <mxGeometry x="374.5" y="268" width="71" height="39" as="geometry" />
        </mxCell>
        <mxCell id="cuonqmeyS63wB0P_Q7tT-27" style="edgeStyle=none;curved=1;rounded=0;orthogonalLoop=1;jettySize=auto;html=1;exitX=0;exitY=0.5;exitDx=0;exitDy=0;strokeColor=default;align=center;verticalAlign=middle;fontFamily=Helvetica;fontSize=12;fontColor=default;labelBackgroundColor=default;startSize=8;endArrow=none;endFill=0;endSize=8;" edge="1" parent="1" source="cuonqmeyS63wB0P_Q7tT-11" target="cuonqmeyS63wB0P_Q7tT-3">
          <mxGeometry relative="1" as="geometry" />
        </mxCell>
        <mxCell id="cuonqmeyS63wB0P_Q7tT-11" value="출판사이름" style="ellipse;whiteSpace=wrap;html=1;" vertex="1" parent="1">
          <mxGeometry x="389" y="389" width="78" height="39" as="geometry" />
        </mxCell>
        <mxCell id="cuonqmeyS63wB0P_Q7tT-12" value="&lt;b&gt;도서&lt;/b&gt;(&lt;u&gt;도서번호&lt;/u&gt;, 도서 이름, 출판사이름, 도서단가)" style="text;strokeColor=none;fillColor=none;html=1;align=left;verticalAlign=middle;whiteSpace=wrap;rounded=0;fontSize=16;" vertex="1" parent="1">
          <mxGeometry x="369" y="-5" width="376" height="30" as="geometry" />
        </mxCell>
        <mxCell id="cuonqmeyS63wB0P_Q7tT-13" value="&lt;b&gt;고객&lt;/b&gt;(&lt;u&gt;고객번호&lt;/u&gt;, 고객이름, 주소, 전화번호" style="text;strokeColor=none;fillColor=none;html=1;align=left;verticalAlign=middle;whiteSpace=wrap;rounded=0;fontSize=16;" vertex="1" parent="1">
          <mxGeometry x="369" y="64" width="346" height="30" as="geometry" />
        </mxCell>
        <mxCell id="cuonqmeyS63wB0P_Q7tT-14" value="&lt;b&gt;출판사&lt;/b&gt;(&lt;u&gt;출판사 번호&lt;/u&gt;, 출판사이름, 담당자 이름, 전화번호)" style="text;strokeColor=none;fillColor=none;html=1;align=left;verticalAlign=middle;whiteSpace=wrap;rounded=0;fontSize=16;" vertex="1" parent="1">
          <mxGeometry x="369" y="29" width="415" height="30" as="geometry" />
        </mxCell>
        <mxCell id="cuonqmeyS63wB0P_Q7tT-16" value="" style="endArrow=none;html=1;rounded=0;fontSize=12;startSize=8;endSize=8;curved=1;exitX=0;exitY=0.5;exitDx=0;exitDy=0;" edge="1" parent="1" source="cuonqmeyS63wB0P_Q7tT-5" target="cuonqmeyS63wB0P_Q7tT-2">
          <mxGeometry width="50" height="50" relative="1" as="geometry">
            <mxPoint x="291" y="556" as="sourcePoint" />
            <mxPoint x="341" y="506" as="targetPoint" />
          </mxGeometry>
        </mxCell>
        <mxCell id="cuonqmeyS63wB0P_Q7tT-30" style="edgeStyle=none;curved=1;rounded=0;orthogonalLoop=1;jettySize=auto;html=1;exitX=0;exitY=0.5;exitDx=0;exitDy=0;strokeColor=default;align=center;verticalAlign=middle;fontFamily=Helvetica;fontSize=12;fontColor=default;labelBackgroundColor=default;startSize=8;endArrow=none;endFill=0;endSize=8;entryX=1;entryY=0;entryDx=0;entryDy=0;" edge="1" parent="1" source="cuonqmeyS63wB0P_Q7tT-20" target="cuonqmeyS63wB0P_Q7tT-4">
          <mxGeometry relative="1" as="geometry">
            <mxPoint x="19" y="618" as="targetPoint" />
          </mxGeometry>
        </mxCell>
        <mxCell id="cuonqmeyS63wB0P_Q7tT-20" value="고객번호" style="ellipse;whiteSpace=wrap;html=1;" vertex="1" parent="1">
          <mxGeometry x="60" y="580" width="63" height="40" as="geometry" />
        </mxCell>
        <mxCell id="cuonqmeyS63wB0P_Q7tT-31" style="edgeStyle=none;curved=1;rounded=0;orthogonalLoop=1;jettySize=auto;html=1;exitX=0;exitY=0.5;exitDx=0;exitDy=0;entryX=1;entryY=0.25;entryDx=0;entryDy=0;strokeColor=default;align=center;verticalAlign=middle;fontFamily=Helvetica;fontSize=12;fontColor=default;labelBackgroundColor=default;startSize=8;endArrow=none;endFill=0;endSize=8;" edge="1" parent="1" source="cuonqmeyS63wB0P_Q7tT-21" target="cuonqmeyS63wB0P_Q7tT-4">
          <mxGeometry relative="1" as="geometry" />
        </mxCell>
        <mxCell id="cuonqmeyS63wB0P_Q7tT-21" value="고객이름" style="ellipse;whiteSpace=wrap;html=1;" vertex="1" parent="1">
          <mxGeometry x="48" y="650" width="63" height="40" as="geometry" />
        </mxCell>
        <mxCell id="cuonqmeyS63wB0P_Q7tT-32" style="edgeStyle=none;curved=1;rounded=0;orthogonalLoop=1;jettySize=auto;html=1;exitX=0;exitY=0;exitDx=0;exitDy=0;entryX=0.75;entryY=1;entryDx=0;entryDy=0;strokeColor=default;align=center;verticalAlign=middle;fontFamily=Helvetica;fontSize=12;fontColor=default;labelBackgroundColor=default;startSize=8;endArrow=none;endFill=0;endSize=8;" edge="1" parent="1" source="cuonqmeyS63wB0P_Q7tT-22" target="cuonqmeyS63wB0P_Q7tT-4">
          <mxGeometry relative="1" as="geometry" />
        </mxCell>
        <mxCell id="cuonqmeyS63wB0P_Q7tT-22" value="주소" style="ellipse;whiteSpace=wrap;html=1;" vertex="1" parent="1">
          <mxGeometry x="-4" y="692" width="63" height="40" as="geometry" />
        </mxCell>
        <mxCell id="cuonqmeyS63wB0P_Q7tT-33" style="edgeStyle=none;curved=1;rounded=0;orthogonalLoop=1;jettySize=auto;html=1;exitX=0;exitY=0;exitDx=0;exitDy=0;strokeColor=default;align=center;verticalAlign=middle;fontFamily=Helvetica;fontSize=12;fontColor=default;labelBackgroundColor=default;startSize=8;endArrow=none;endFill=0;endSize=8;" edge="1" parent="1" source="cuonqmeyS63wB0P_Q7tT-23" target="cuonqmeyS63wB0P_Q7tT-4">
          <mxGeometry relative="1" as="geometry" />
        </mxCell>
        <mxCell id="cuonqmeyS63wB0P_Q7tT-23" value="전화번호" style="ellipse;whiteSpace=wrap;html=1;" vertex="1" parent="1">
          <mxGeometry x="-86" y="703" width="63" height="40" as="geometry" />
        </mxCell>
        <mxCell id="cuonqmeyS63wB0P_Q7tT-28" style="edgeStyle=none;curved=1;rounded=0;orthogonalLoop=1;jettySize=auto;html=1;exitX=0.5;exitY=0;exitDx=0;exitDy=0;entryX=0.5;entryY=1;entryDx=0;entryDy=0;strokeColor=default;align=center;verticalAlign=middle;fontFamily=Helvetica;fontSize=12;fontColor=default;labelBackgroundColor=default;startSize=8;endArrow=none;endFill=0;endSize=8;" edge="1" parent="1" source="cuonqmeyS63wB0P_Q7tT-24" target="cuonqmeyS63wB0P_Q7tT-3">
          <mxGeometry relative="1" as="geometry" />
        </mxCell>
        <mxCell id="cuonqmeyS63wB0P_Q7tT-24" value="담당자이름" style="ellipse;whiteSpace=wrap;html=1;" vertex="1" parent="1">
          <mxGeometry x="303.5" y="439" width="71" height="39" as="geometry" />
        </mxCell>
        <mxCell id="cuonqmeyS63wB0P_Q7tT-29" style="edgeStyle=none;curved=1;rounded=0;orthogonalLoop=1;jettySize=auto;html=1;exitX=0;exitY=0.5;exitDx=0;exitDy=0;entryX=0.75;entryY=1;entryDx=0;entryDy=0;strokeColor=default;align=center;verticalAlign=middle;fontFamily=Helvetica;fontSize=12;fontColor=default;labelBackgroundColor=default;startSize=8;endArrow=none;endFill=0;endSize=8;" edge="1" parent="1" source="cuonqmeyS63wB0P_Q7tT-25" target="cuonqmeyS63wB0P_Q7tT-3">
          <mxGeometry relative="1" as="geometry" />
        </mxCell>
        <mxCell id="cuonqmeyS63wB0P_Q7tT-25" value="전화번호" style="ellipse;whiteSpace=wrap;html=1;" vertex="1" parent="1">
          <mxGeometry x="389" y="445" width="71" height="39" as="geometry" />
        </mxCell>
        <mxCell id="cuonqmeyS63wB0P_Q7tT-35" value="- 도서와 출판사의 관계 : 1:N&lt;div&gt;- 고객과 도서의 관계 M:N&lt;/div&gt;&lt;div&gt;- 도서를 고객이 주문하는 내용을 기록으로 남겨야 함&lt;/div&gt;" style="text;strokeColor=none;fillColor=none;html=1;align=left;verticalAlign=middle;whiteSpace=wrap;rounded=0;fontSize=12;fontFamily=Helvetica;fontColor=default;labelBackgroundColor=none;" vertex="1" parent="1">
          <mxGeometry x="123" y="144" width="358" height="118" as="geometry" />
        </mxCell>
        <mxCell id="cuonqmeyS63wB0P_Q7tT-38" style="edgeStyle=none;curved=1;rounded=0;orthogonalLoop=1;jettySize=auto;html=1;exitX=0.5;exitY=1;exitDx=0;exitDy=0;strokeColor=default;align=center;verticalAlign=middle;fontFamily=Helvetica;fontSize=12;fontColor=default;labelBackgroundColor=default;startSize=8;endArrow=none;endFill=0;endSize=8;" edge="1" parent="1" source="cuonqmeyS63wB0P_Q7tT-36" target="cuonqmeyS63wB0P_Q7tT-4">
          <mxGeometry relative="1" as="geometry" />
        </mxCell>
        <mxCell id="cuonqmeyS63wB0P_Q7tT-36" value="주문" style="rhombus;whiteSpace=wrap;html=1;fontFamily=Helvetica;fontSize=12;fontColor=default;labelBackgroundColor=default;" vertex="1" parent="1">
          <mxGeometry x="-72" y="469" width="104" height="49" as="geometry" />
        </mxCell>
        <mxCell id="cuonqmeyS63wB0P_Q7tT-39" value="N" style="text;strokeColor=none;fillColor=none;html=1;align=center;verticalAlign=middle;whiteSpace=wrap;rounded=0;fontSize=12;fontFamily=Helvetica;fontColor=default;labelBackgroundColor=default;" vertex="1" parent="1">
          <mxGeometry x="-70" y="372" width="60" height="30" as="geometry" />
        </mxCell>
        <mxCell id="cuonqmeyS63wB0P_Q7tT-40" value="M" style="text;strokeColor=none;fillColor=none;html=1;align=center;verticalAlign=middle;whiteSpace=wrap;rounded=0;fontSize=12;fontFamily=Helvetica;fontColor=default;labelBackgroundColor=default;" vertex="1" parent="1">
          <mxGeometry x="-47.5" y="599" width="31" height="21" as="geometry" />
        </mxCell>
        <mxCell id="SNH9G_IHIEFFWyBbaWy_-2" style="edgeStyle=none;curved=1;rounded=0;orthogonalLoop=1;jettySize=auto;html=1;exitX=1;exitY=0.5;exitDx=0;exitDy=0;entryX=0;entryY=0.5;entryDx=0;entryDy=0;strokeColor=default;align=center;verticalAlign=middle;fontFamily=Helvetica;fontSize=12;fontColor=default;labelBackgroundColor=default;startSize=8;endArrow=none;endFill=0;endSize=8;" edge="1" parent="1" source="wdiNtxz7816E8pnW6bpF-1" target="cuonqmeyS63wB0P_Q7tT-3">
          <mxGeometry relative="1" as="geometry" />
        </mxCell>
        <mxCell id="wdiNtxz7816E8pnW6bpF-1" value="납품" style="rhombus;whiteSpace=wrap;html=1;fontFamily=Helvetica;fontSize=12;fontColor=default;labelBackgroundColor=default;" vertex="1" parent="1">
          <mxGeometry x="123" y="338" width="104" height="49" as="geometry" />
        </mxCell>
        <mxCell id="SNH9G_IHIEFFWyBbaWy_-1" style="edgeStyle=none;curved=1;rounded=0;orthogonalLoop=1;jettySize=auto;html=1;exitX=1;exitY=0.5;exitDx=0;exitDy=0;entryX=0.067;entryY=0.49;entryDx=0;entryDy=0;entryPerimeter=0;strokeColor=default;align=center;verticalAlign=middle;fontFamily=Helvetica;fontSize=12;fontColor=default;labelBackgroundColor=default;startSize=8;endArrow=none;endFill=0;endSize=8;" edge="1" parent="1" source="cuonqmeyS63wB0P_Q7tT-2" target="wdiNtxz7816E8pnW6bpF-1">
          <mxGeometry relative="1" as="geometry" />
        </mxCell>
        <mxCell id="SNH9G_IHIEFFWyBbaWy_-3" value="N" style="text;strokeColor=none;fillColor=none;html=1;align=center;verticalAlign=middle;whiteSpace=wrap;rounded=0;fontSize=12;fontFamily=Helvetica;fontColor=default;labelBackgroundColor=default;" vertex="1" parent="1">
          <mxGeometry x="-1" y="338" width="42" height="19" as="geometry" />
        </mxCell>
        <mxCell id="SNH9G_IHIEFFWyBbaWy_-4" value="1" style="text;strokeColor=none;fillColor=none;html=1;align=center;verticalAlign=middle;whiteSpace=wrap;rounded=0;fontSize=12;fontFamily=Helvetica;fontColor=default;labelBackgroundColor=default;" vertex="1" parent="1">
          <mxGeometry x="222" y="338" width="60" height="30" as="geometry" />
        </mxCell>
      </root>
    </mxGraphModel>
  </diagram>
  <diagram id="tvWIgQ_7Li9zMm7N6J_q" name="Enrollment">
    <mxGraphModel dx="2065" dy="1628" grid="0" gridSize="10" guides="1" tooltips="1" connect="1" arrows="1" fold="1" page="0" pageScale="1" pageWidth="827" pageHeight="1169" math="0" shadow="0">
      <root>
        <mxCell id="0" />
        <mxCell id="1" parent="0" />
        <mxCell id="vGMN7tsWKdPfmXJ1ibTJ-1" style="edgeStyle=none;curved=1;rounded=0;orthogonalLoop=1;jettySize=auto;html=1;exitX=0.5;exitY=1;exitDx=0;exitDy=0;strokeColor=default;align=center;verticalAlign=middle;fontFamily=Helvetica;fontSize=12;fontColor=default;labelBackgroundColor=default;startSize=8;endArrow=none;endFill=0;endSize=8;" edge="1" parent="1" source="vGMN7tsWKdPfmXJ1ibTJ-2" target="vGMN7tsWKdPfmXJ1ibTJ-9">
          <mxGeometry relative="1" as="geometry" />
        </mxCell>
        <mxCell id="vGMN7tsWKdPfmXJ1ibTJ-2" value="Member" style="rounded=0;whiteSpace=wrap;html=1;fontFamily=Helvetica;fontSize=12;fontColor=default;labelBackgroundColor=default;" vertex="1" parent="1">
          <mxGeometry x="-830" y="-420" width="70" height="36" as="geometry" />
        </mxCell>
        <mxCell id="vGMN7tsWKdPfmXJ1ibTJ-5" style="edgeStyle=none;curved=1;rounded=0;orthogonalLoop=1;jettySize=auto;html=1;exitX=1;exitY=0.5;exitDx=0;exitDy=0;entryX=0;entryY=0.5;entryDx=0;entryDy=0;strokeColor=default;align=center;verticalAlign=middle;fontFamily=Helvetica;fontSize=12;fontColor=default;labelBackgroundColor=default;startSize=8;endArrow=none;endFill=0;endSize=8;" edge="1" parent="1" source="vGMN7tsWKdPfmXJ1ibTJ-6" target="vGMN7tsWKdPfmXJ1ibTJ-13">
          <mxGeometry relative="1" as="geometry" />
        </mxCell>
        <mxCell id="vGMN7tsWKdPfmXJ1ibTJ-6" value="Class" style="rounded=0;whiteSpace=wrap;html=1;fontFamily=Helvetica;fontSize=12;fontColor=default;labelBackgroundColor=default;" vertex="1" parent="1">
          <mxGeometry x="-830" y="-214" width="70" height="36" as="geometry" />
        </mxCell>
        <mxCell id="vGMN7tsWKdPfmXJ1ibTJ-7" value="Trainer" style="rounded=0;whiteSpace=wrap;html=1;fontFamily=Helvetica;fontSize=12;fontColor=default;labelBackgroundColor=default;" vertex="1" parent="1">
          <mxGeometry x="-508" y="-214" width="70" height="36" as="geometry" />
        </mxCell>
        <mxCell id="vGMN7tsWKdPfmXJ1ibTJ-50" style="edgeStyle=none;curved=1;rounded=0;orthogonalLoop=1;jettySize=auto;html=1;exitX=0.5;exitY=1;exitDx=0;exitDy=0;strokeColor=default;align=center;verticalAlign=middle;fontFamily=Helvetica;fontSize=12;fontColor=default;labelBackgroundColor=default;startSize=8;endArrow=none;endFill=0;endSize=8;" edge="1" parent="1" source="vGMN7tsWKdPfmXJ1ibTJ-9" target="vGMN7tsWKdPfmXJ1ibTJ-6">
          <mxGeometry relative="1" as="geometry" />
        </mxCell>
        <mxCell id="vGMN7tsWKdPfmXJ1ibTJ-9" value="Register" style="rhombus;whiteSpace=wrap;html=1;fontFamily=Helvetica;fontSize=12;fontColor=default;labelBackgroundColor=default;" vertex="1" parent="1">
          <mxGeometry x="-835" y="-327" width="80" height="34" as="geometry" />
        </mxCell>
        <mxCell id="vGMN7tsWKdPfmXJ1ibTJ-12" style="edgeStyle=none;curved=1;rounded=0;orthogonalLoop=1;jettySize=auto;html=1;exitX=1;exitY=0.5;exitDx=0;exitDy=0;entryX=0;entryY=0.5;entryDx=0;entryDy=0;strokeColor=default;align=center;verticalAlign=middle;fontFamily=Helvetica;fontSize=12;fontColor=default;labelBackgroundColor=default;startSize=8;endArrow=none;endFill=0;endSize=8;" edge="1" parent="1" source="vGMN7tsWKdPfmXJ1ibTJ-13" target="vGMN7tsWKdPfmXJ1ibTJ-7">
          <mxGeometry relative="1" as="geometry" />
        </mxCell>
        <mxCell id="vGMN7tsWKdPfmXJ1ibTJ-13" value="lecture" style="rhombus;whiteSpace=wrap;html=1;fontFamily=Helvetica;fontSize=12;fontColor=default;labelBackgroundColor=default;" vertex="1" parent="1">
          <mxGeometry x="-670" y="-212" width="80" height="34" as="geometry" />
        </mxCell>
        <mxCell id="vGMN7tsWKdPfmXJ1ibTJ-15" style="edgeStyle=none;curved=1;rounded=0;orthogonalLoop=1;jettySize=auto;html=1;exitX=1;exitY=0.5;exitDx=0;exitDy=0;entryX=0;entryY=0.5;entryDx=0;entryDy=0;strokeColor=default;align=center;verticalAlign=middle;fontFamily=Helvetica;fontSize=12;fontColor=default;labelBackgroundColor=default;startSize=8;endArrow=none;endFill=0;endSize=8;" edge="1" parent="1" source="vGMN7tsWKdPfmXJ1ibTJ-16" target="vGMN7tsWKdPfmXJ1ibTJ-2">
          <mxGeometry relative="1" as="geometry" />
        </mxCell>
        <mxCell id="vGMN7tsWKdPfmXJ1ibTJ-16" value="&lt;u&gt;Member_id&lt;/u&gt;" style="ellipse;whiteSpace=wrap;html=1;fontFamily=Helvetica;fontSize=12;fontColor=default;labelBackgroundColor=default;" vertex="1" parent="1">
          <mxGeometry x="-934" y="-409" width="73" height="40" as="geometry" />
        </mxCell>
        <mxCell id="vGMN7tsWKdPfmXJ1ibTJ-20" style="edgeStyle=none;curved=1;rounded=0;orthogonalLoop=1;jettySize=auto;html=1;exitX=1;exitY=0.5;exitDx=0;exitDy=0;entryX=0;entryY=0.25;entryDx=0;entryDy=0;strokeColor=default;align=center;verticalAlign=middle;fontFamily=Helvetica;fontSize=12;fontColor=default;labelBackgroundColor=default;startSize=8;endArrow=none;endFill=0;endSize=8;" edge="1" parent="1" source="vGMN7tsWKdPfmXJ1ibTJ-21" target="vGMN7tsWKdPfmXJ1ibTJ-6">
          <mxGeometry relative="1" as="geometry" />
        </mxCell>
        <mxCell id="vGMN7tsWKdPfmXJ1ibTJ-21" value="&lt;u&gt;Class_id&lt;/u&gt;" style="ellipse;whiteSpace=wrap;html=1;fontFamily=Helvetica;fontSize=12;fontColor=default;labelBackgroundColor=default;" vertex="1" parent="1">
          <mxGeometry x="-932" y="-249" width="73" height="40" as="geometry" />
        </mxCell>
        <mxCell id="vGMN7tsWKdPfmXJ1ibTJ-22" value="name" style="ellipse;whiteSpace=wrap;html=1;fontFamily=Helvetica;fontSize=12;fontColor=default;labelBackgroundColor=default;" vertex="1" parent="1">
          <mxGeometry x="-906" y="-466" width="73" height="40" as="geometry" />
        </mxCell>
        <mxCell id="vGMN7tsWKdPfmXJ1ibTJ-23" style="edgeStyle=none;curved=1;rounded=0;orthogonalLoop=1;jettySize=auto;html=1;exitX=0.5;exitY=1;exitDx=0;exitDy=0;entryX=0.5;entryY=0;entryDx=0;entryDy=0;strokeColor=default;align=center;verticalAlign=middle;fontFamily=Helvetica;fontSize=12;fontColor=default;labelBackgroundColor=default;startSize=8;endArrow=none;endFill=0;endSize=8;" edge="1" parent="1" source="vGMN7tsWKdPfmXJ1ibTJ-24" target="vGMN7tsWKdPfmXJ1ibTJ-2">
          <mxGeometry relative="1" as="geometry" />
        </mxCell>
        <mxCell id="vGMN7tsWKdPfmXJ1ibTJ-24" value="address" style="ellipse;whiteSpace=wrap;html=1;fontFamily=Helvetica;fontSize=12;fontColor=default;labelBackgroundColor=default;" vertex="1" parent="1">
          <mxGeometry x="-821" y="-497" width="73" height="40" as="geometry" />
        </mxCell>
        <mxCell id="vGMN7tsWKdPfmXJ1ibTJ-25" style="edgeStyle=none;curved=1;rounded=0;orthogonalLoop=1;jettySize=auto;html=1;exitX=0.5;exitY=1;exitDx=0;exitDy=0;entryX=1;entryY=0.25;entryDx=0;entryDy=0;strokeColor=default;align=center;verticalAlign=middle;fontFamily=Helvetica;fontSize=12;fontColor=default;labelBackgroundColor=default;startSize=8;endArrow=none;endFill=0;endSize=8;" edge="1" parent="1" source="vGMN7tsWKdPfmXJ1ibTJ-26" target="vGMN7tsWKdPfmXJ1ibTJ-2">
          <mxGeometry relative="1" as="geometry" />
        </mxCell>
        <mxCell id="vGMN7tsWKdPfmXJ1ibTJ-26" value="phone" style="ellipse;whiteSpace=wrap;html=1;fontFamily=Helvetica;fontSize=12;fontColor=default;labelBackgroundColor=default;" vertex="1" parent="1">
          <mxGeometry x="-731" y="-470" width="73" height="40" as="geometry" />
        </mxCell>
        <mxCell id="vGMN7tsWKdPfmXJ1ibTJ-27" style="edgeStyle=none;curved=1;rounded=0;orthogonalLoop=1;jettySize=auto;html=1;exitX=0.5;exitY=1;exitDx=0;exitDy=0;entryX=0.5;entryY=0;entryDx=0;entryDy=0;strokeColor=default;align=center;verticalAlign=middle;fontFamily=Helvetica;fontSize=12;fontColor=default;labelBackgroundColor=default;startSize=8;endArrow=none;endFill=0;endSize=8;" edge="1" parent="1" source="vGMN7tsWKdPfmXJ1ibTJ-28" target="vGMN7tsWKdPfmXJ1ibTJ-7">
          <mxGeometry relative="1" as="geometry" />
        </mxCell>
        <mxCell id="vGMN7tsWKdPfmXJ1ibTJ-28" value="name" style="ellipse;whiteSpace=wrap;html=1;fontFamily=Helvetica;fontSize=12;fontColor=default;labelBackgroundColor=default;" vertex="1" parent="1">
          <mxGeometry x="-519" y="-275" width="73" height="40" as="geometry" />
        </mxCell>
        <mxCell id="vGMN7tsWKdPfmXJ1ibTJ-29" style="edgeStyle=none;curved=1;rounded=0;orthogonalLoop=1;jettySize=auto;html=1;exitX=0;exitY=1;exitDx=0;exitDy=0;entryX=1;entryY=0;entryDx=0;entryDy=0;strokeColor=default;align=center;verticalAlign=middle;fontFamily=Helvetica;fontSize=12;fontColor=default;labelBackgroundColor=default;startSize=8;endArrow=none;endFill=0;endSize=8;" edge="1" parent="1" source="vGMN7tsWKdPfmXJ1ibTJ-30" target="vGMN7tsWKdPfmXJ1ibTJ-7">
          <mxGeometry relative="1" as="geometry" />
        </mxCell>
        <mxCell id="vGMN7tsWKdPfmXJ1ibTJ-30" value="&lt;u&gt;Trainer_id&lt;/u&gt;" style="ellipse;whiteSpace=wrap;html=1;fontFamily=Helvetica;fontSize=12;fontColor=default;labelBackgroundColor=default;" vertex="1" parent="1">
          <mxGeometry x="-426" y="-252" width="73" height="40" as="geometry" />
        </mxCell>
        <mxCell id="vGMN7tsWKdPfmXJ1ibTJ-31" style="edgeStyle=none;curved=1;rounded=0;orthogonalLoop=1;jettySize=auto;html=1;exitX=0;exitY=0;exitDx=0;exitDy=0;entryX=1;entryY=0.75;entryDx=0;entryDy=0;strokeColor=default;align=center;verticalAlign=middle;fontFamily=Helvetica;fontSize=12;fontColor=default;labelBackgroundColor=default;startSize=8;endArrow=none;endFill=0;endSize=8;" edge="1" parent="1" source="vGMN7tsWKdPfmXJ1ibTJ-32" target="vGMN7tsWKdPfmXJ1ibTJ-7">
          <mxGeometry relative="1" as="geometry" />
        </mxCell>
        <mxCell id="vGMN7tsWKdPfmXJ1ibTJ-32" value="specialty" style="ellipse;whiteSpace=wrap;html=1;fontFamily=Helvetica;fontSize=12;fontColor=default;labelBackgroundColor=default;" vertex="1" parent="1">
          <mxGeometry x="-416" y="-191" width="73" height="40" as="geometry" />
        </mxCell>
        <mxCell id="vGMN7tsWKdPfmXJ1ibTJ-33" style="edgeStyle=none;curved=1;rounded=0;orthogonalLoop=1;jettySize=auto;html=1;exitX=1;exitY=0.5;exitDx=0;exitDy=0;entryX=0;entryY=0.5;entryDx=0;entryDy=0;strokeColor=default;align=center;verticalAlign=middle;fontFamily=Helvetica;fontSize=12;fontColor=default;labelBackgroundColor=default;startSize=8;endArrow=none;endFill=0;endSize=8;" edge="1" parent="1" source="vGMN7tsWKdPfmXJ1ibTJ-34" target="vGMN7tsWKdPfmXJ1ibTJ-6">
          <mxGeometry relative="1" as="geometry" />
        </mxCell>
        <mxCell id="vGMN7tsWKdPfmXJ1ibTJ-34" value="class_name" style="ellipse;whiteSpace=wrap;html=1;fontFamily=Helvetica;fontSize=12;fontColor=default;labelBackgroundColor=default;" vertex="1" parent="1">
          <mxGeometry x="-957" y="-198" width="73" height="40" as="geometry" />
        </mxCell>
        <mxCell id="vGMN7tsWKdPfmXJ1ibTJ-35" style="edgeStyle=none;curved=1;rounded=0;orthogonalLoop=1;jettySize=auto;html=1;exitX=1;exitY=0;exitDx=0;exitDy=0;entryX=0;entryY=1;entryDx=0;entryDy=0;strokeColor=default;align=center;verticalAlign=middle;fontFamily=Helvetica;fontSize=12;fontColor=default;labelBackgroundColor=default;startSize=8;endArrow=none;endFill=0;endSize=8;" edge="1" parent="1" source="vGMN7tsWKdPfmXJ1ibTJ-36" target="vGMN7tsWKdPfmXJ1ibTJ-6">
          <mxGeometry relative="1" as="geometry" />
        </mxCell>
        <mxCell id="vGMN7tsWKdPfmXJ1ibTJ-36" value="start_time" style="ellipse;whiteSpace=wrap;html=1;fontFamily=Helvetica;fontSize=12;fontColor=default;labelBackgroundColor=default;" vertex="1" parent="1">
          <mxGeometry x="-943" y="-134" width="73" height="40" as="geometry" />
        </mxCell>
        <mxCell id="vGMN7tsWKdPfmXJ1ibTJ-37" style="edgeStyle=none;curved=1;rounded=0;orthogonalLoop=1;jettySize=auto;html=1;exitX=0.5;exitY=0;exitDx=0;exitDy=0;entryX=0.25;entryY=1;entryDx=0;entryDy=0;strokeColor=default;align=center;verticalAlign=middle;fontFamily=Helvetica;fontSize=12;fontColor=default;labelBackgroundColor=default;startSize=8;endArrow=none;endFill=0;endSize=8;" edge="1" parent="1" source="vGMN7tsWKdPfmXJ1ibTJ-38" target="vGMN7tsWKdPfmXJ1ibTJ-6">
          <mxGeometry relative="1" as="geometry" />
        </mxCell>
        <mxCell id="vGMN7tsWKdPfmXJ1ibTJ-38" value="end_time" style="ellipse;whiteSpace=wrap;html=1;fontFamily=Helvetica;fontSize=12;fontColor=default;labelBackgroundColor=default;" vertex="1" parent="1">
          <mxGeometry x="-855" y="-109" width="73" height="40" as="geometry" />
        </mxCell>
        <mxCell id="vGMN7tsWKdPfmXJ1ibTJ-41" style="edgeStyle=none;curved=1;rounded=0;orthogonalLoop=1;jettySize=auto;html=1;exitX=1;exitY=1;exitDx=0;exitDy=0;entryX=0.143;entryY=0.028;entryDx=0;entryDy=0;entryPerimeter=0;strokeColor=default;align=center;verticalAlign=middle;fontFamily=Helvetica;fontSize=12;fontColor=default;labelBackgroundColor=default;startSize=8;endArrow=none;endFill=0;endSize=8;" edge="1" parent="1" source="vGMN7tsWKdPfmXJ1ibTJ-22" target="vGMN7tsWKdPfmXJ1ibTJ-2">
          <mxGeometry relative="1" as="geometry" />
        </mxCell>
        <mxCell id="vGMN7tsWKdPfmXJ1ibTJ-42" value="N" style="text;strokeColor=none;fillColor=none;html=1;align=center;verticalAlign=middle;whiteSpace=wrap;rounded=0;fontSize=12;fontFamily=Helvetica;fontColor=default;labelBackgroundColor=default;" vertex="1" parent="1">
          <mxGeometry x="-825" y="-387" width="60" height="30" as="geometry" />
        </mxCell>
        <mxCell id="vGMN7tsWKdPfmXJ1ibTJ-45" value="1" style="text;strokeColor=none;fillColor=none;html=1;align=center;verticalAlign=middle;whiteSpace=wrap;rounded=0;fontSize=12;fontFamily=Helvetica;fontColor=default;labelBackgroundColor=default;" vertex="1" parent="1">
          <mxGeometry x="-825" y="-236" width="60" height="19" as="geometry" />
        </mxCell>
        <mxCell id="vGMN7tsWKdPfmXJ1ibTJ-48" value="N" style="text;strokeColor=none;fillColor=none;html=1;align=center;verticalAlign=middle;whiteSpace=wrap;rounded=0;fontSize=12;fontFamily=Helvetica;fontColor=default;labelBackgroundColor=default;" vertex="1" parent="1">
          <mxGeometry x="-759" y="-204.5" width="13" height="19" as="geometry" />
        </mxCell>
        <mxCell id="vGMN7tsWKdPfmXJ1ibTJ-49" value="1" style="text;strokeColor=none;fillColor=none;html=1;align=center;verticalAlign=middle;whiteSpace=wrap;rounded=0;fontSize=12;fontFamily=Helvetica;fontColor=default;labelBackgroundColor=default;" vertex="1" parent="1">
          <mxGeometry x="-527" y="-206" width="13" height="19" as="geometry" />
        </mxCell>
      </root>
    </mxGraphModel>
  </diagram>
</mxfile>
